<svg id="visual" viewBox="0 0 1600 900" width="1600" height="900" xmlns="http://www.w3.org/2000/svg" xmlns:xlink="http://www.w3.org/1999/xlink" version="1.1"><rect width="1600" height="900" fill="#ffffff"></rect><g><g transform="translate(534 48)"><path d="M80.5 -46.9C94.7 -21.7 90.2 13.9 73.7 40.7C57.1 67.5 28.6 85.5 2.1 84.3C-24.3 83.1 -48.7 62.6 -61 38.3C-73.2 13.9 -73.4 -14.3 -61.3 -38.3C-49.1 -62.3 -24.5 -82.1 4.3 -84.5C33.1 -87 66.2 -72.2 80.5 -46.9Z" stroke="#f60059" fill="none" stroke-width="20"></path></g><g transform="translate(84 419)"><path d="M64.2 -33.4C77.6 -14 78.8 16.1 66.1 37.6C53.4 59.1 26.7 72 -0.7 72.4C-28.1 72.8 -56.2 60.7 -70.6 38.3C-85 15.8 -85.7 -17 -71.6 -36.8C-57.5 -56.7 -28.8 -63.5 -1.7 -62.5C25.4 -61.5 50.9 -52.8 64.2 -33.4Z" stroke="#f60059" fill="none" stroke-width="20"></path></g><g transform="translate(849 175)"><path d="M57.2 -35.1C65.3 -18.9 57.1 4.6 44.8 23.9C32.5 43.2 16.3 58.2 -3.3 60.1C-22.8 62 -45.6 50.8 -57 32C-68.4 13.2 -68.4 -13.2 -57 -31.3C-45.6 -49.4 -22.8 -59.3 0.9 -59.8C24.5 -60.3 49 -51.4 57.2 -35.1Z" stroke="#f60059" fill="none" stroke-width="20"></path></g><g transform="translate(1229 756)"><path d="M47.9 -27.4C56.6 -12.5 54.6 8.9 44.8 24.2C35 39.6 17.5 48.9 -1.4 49.7C-20.3 50.5 -40.7 42.9 -47.6 29.1C-54.6 15.4 -48.3 -4.4 -38.1 -20.1C-28 -35.8 -14 -47.4 2.8 -49C19.6 -50.6 39.2 -42.3 47.9 -27.4Z" stroke="#f60059" fill="none" stroke-width="20"></path></g><g transform="translate(1239 247)"><path d="M64.7 -35.5C75.2 -19.3 68.9 8.5 55.4 31.4C41.8 54.4 20.9 72.5 -1.8 73.6C-24.6 74.6 -49.2 58.6 -60.2 37.2C-71.2 15.7 -68.5 -11.2 -56.3 -28.5C-44 -45.8 -22 -53.5 2.6 -55C27.1 -56.5 54.3 -51.8 64.7 -35.5Z" stroke="#f60059" fill="none" stroke-width="20"></path></g><g transform="translate(834 447)"><path d="M33.4 -20.4C40.7 -6.5 42.4 9.5 35.9 22.9C29.4 36.3 14.7 47.2 -1.6 48.2C-18 49.1 -36 40.1 -45.5 24.9C-55.1 9.7 -56.3 -11.7 -47.3 -26.5C-38.3 -41.3 -19.2 -49.5 -3.1 -47.7C13 -45.9 26 -34.2 33.4 -20.4Z" stroke="#f60059" fill="none" stroke-width="20"></path></g><g transform="translate(540 889)"><path d="M64.3 -40.3C74.7 -19.2 68.5 8.4 55 31C41.5 53.7 20.7 71.4 -0.1 71.4C-20.9 71.5 -41.9 53.9 -55.9 30.9C-69.9 8 -77 -20.3 -66.6 -41.4C-56.1 -62.6 -28 -76.6 -0.5 -76.3C27 -76 54 -61.3 64.3 -40.3Z" stroke="#f60059" fill="none" stroke-width="20"></path></g><g transform="translate(905 800)"><path d="M32.9 -18.7C40.2 -6.5 41.8 9.3 35.4 21.4C28.9 33.5 14.5 41.9 -1.1 42.5C-16.7 43.2 -33.4 36.1 -40 23.8C-46.7 11.6 -43.2 -5.7 -34.9 -18.5C-26.5 -31.4 -13.3 -39.8 -0.2 -39.7C12.9 -39.5 25.7 -30.9 32.9 -18.7Z" stroke="#f60059" fill="none" stroke-width="20"></path></g><g transform="translate(1122 537)"><path d="M49.6 -24.7C61.1 -8.8 64.9 15.5 55.4 33.1C45.9 50.7 22.9 61.6 1.6 60.6C-19.7 59.7 -39.4 46.9 -48 29.9C-56.5 12.8 -54 -8.4 -44.2 -23.5C-34.3 -38.5 -17.2 -47.2 0.9 -47.8C19.1 -48.3 38.1 -40.7 49.6 -24.7Z" stroke="#f60059" fill="none" stroke-width="20"></path></g><g transform="translate(1569 350)"><path d="M46.6 -27.6C55.1 -12.3 52.8 8.4 43.3 27.1C33.7 45.7 16.9 62.1 -0.6 62.5C-18.1 62.9 -36.2 47.1 -44.9 29C-53.6 10.9 -52.9 -9.6 -43.8 -25.2C-34.8 -40.9 -17.4 -51.6 0.9 -52.1C19.1 -52.6 38.2 -42.9 46.6 -27.6Z" stroke="#f60059" fill="none" stroke-width="20"></path></g><g transform="translate(350 501)"><path d="M60.9 -34.4C74.3 -12.1 77.2 17.1 65.3 38.2C53.4 59.3 26.7 72.3 0.7 71.9C-25.4 71.5 -50.7 57.7 -61.7 37.2C-72.7 16.6 -69.3 -10.7 -56.6 -32.7C-43.9 -54.7 -21.9 -71.3 0.9 -71.9C23.8 -72.4 47.6 -56.8 60.9 -34.4Z" stroke="#f60059" fill="none" stroke-width="20"></path></g><g transform="translate(1474 85)"><path d="M37 -25.5C44.3 -8.8 43.9 8.2 36.5 23.6C29 38.9 14.5 52.7 -3.3 54.6C-21.1 56.6 -42.2 46.6 -49.7 31.1C-57.3 15.7 -51.2 -5.2 -40.7 -23.8C-30.1 -42.3 -15.1 -58.6 -0.1 -58.6C14.9 -58.5 29.8 -42.2 37 -25.5Z" stroke="#f60059" fill="none" stroke-width="20"></path></g><g transform="translate(1070 4)"><path d="M49.8 -27.9C59 -12.6 57.4 9.8 47.2 27.8C37.1 45.8 18.6 59.4 -1.2 60.1C-20.9 60.7 -41.8 48.5 -50.6 31.2C-59.4 14 -56.1 -8.3 -45.7 -24.2C-35.2 -40.1 -17.6 -49.7 1.3 -50.4C20.2 -51.2 40.5 -43.1 49.8 -27.9Z" stroke="#f60059" fill="none" stroke-width="20"></path></g><g transform="translate(295 878)"><path d="M30.4 -18.5C36.9 -6.2 38.1 8.2 32.1 18.8C26.1 29.4 13.1 36.2 -2.2 37.5C-17.5 38.7 -34.9 34.5 -41.8 23.4C-48.7 12.2 -45.1 -5.8 -36.3 -19.3C-27.6 -32.8 -13.8 -41.8 -0.9 -41.3C11.9 -40.7 23.8 -30.7 30.4 -18.5Z" stroke="#f60059" fill="none" stroke-width="20"></path></g><g transform="translate(244 71)"><path d="M51.3 -28.2C60.8 -13.2 58.9 9.9 48.4 26.4C38 42.9 19 52.8 2.6 51.4C-13.8 49.9 -27.6 36.9 -37 21C-46.5 5 -51.6 -13.8 -44.7 -27.3C-37.8 -40.8 -18.9 -48.9 1 -49.5C20.9 -50.1 41.8 -43.1 51.3 -28.2Z" stroke="#f60059" fill="none" stroke-width="20"></path></g><g transform="translate(1435 617)"><path d="M59.8 -39.8C68.1 -20.1 59 4.3 46.1 26.1C33.2 47.8 16.6 66.9 -3.7 69C-24 71.1 -47.9 56.3 -58.8 35.7C-69.8 15 -67.7 -11.4 -55.7 -33.2C-43.7 -54.9 -21.9 -71.9 1.9 -73.1C25.8 -74.2 51.5 -59.4 59.8 -39.8Z" stroke="#f60059" fill="none" stroke-width="20"></path></g></g></svg>