<svg xmlns="http://www.w3.org/2000/svg" version="1.1" xmlns:xlink="http://www.w3.org/1999/xlink" xmlns:svgjs="http://svgjs.com/svgjs" width="1600" height="900" preserveAspectRatio="none" viewBox="0 0 1600 900"><g mask="url(&quot;#SvgjsMask1021&quot;)" fill="none"><rect width="1600" height="900" x="0" y="0" fill="rgba(71, 14, 14, 1)"></rect><path d="M800 1113.24C985.74 1124.05 1191.03 1103.85 1316.46 966.46 1438.89 832.33 1410.71 631.53 1405.4 450 1400.34 276.36 1407.07 88.55 1287.08-37.08 1165.33-164.58 976.09-192.67 800-183.86 633.47-175.53 479.52-106.24 359.39 9.39 236.65 127.51 144.99 279.69 141.39 450 137.71 623.5 218.16 786.43 340.42 909.58 463.16 1033.17 626.12 1103.11 800 1113.24" fill="rgba(142, 28, 28, 1)"></path><path d="M800 879.15C920.19 886.15 1053.02 873.08 1134.18 784.18 1213.4 697.39 1195.16 567.46 1191.73 450 1188.45 337.65 1192.81 216.12 1115.17 134.83 1036.39 52.33 913.94 34.16 800 39.85 692.24 45.24 592.63 90.08 514.9 164.9 435.48 241.33 376.17 339.8 373.84 450 371.46 562.27 423.51 667.69 502.63 747.37 582.05 827.34 687.49 872.6 800 879.15" fill="rgba(198, 39, 39, 1)"></path><path d="M800 645.07C854.63 648.25 915.01 642.31 951.9 601.9 987.91 562.45 979.62 503.39 978.06 450 976.57 398.93 978.55 343.69 943.26 306.74 907.45 269.24 851.79 260.98 800 263.57 751.02 266.02 705.74 286.4 670.41 320.41 634.31 355.15 607.35 399.91 606.29 450 605.21 501.03 628.87 548.95 664.83 585.17 700.93 621.52 748.86 642.09 800 645.07" fill="rgba(219, 72, 72, 1)"></path></g><defs><mask id="SvgjsMask1021"><rect width="1600" height="900" fill="#ffffff"></rect></mask></defs></svg>