<svg xmlns="http://www.w3.org/2000/svg" version="1.1" xmlns:xlink="http://www.w3.org/1999/xlink" xmlns:svgjs="http://svgjs.dev/svgjs" viewBox="0 0 800 800"><defs><linearGradient x1="50%" y1="0%" x2="50%" y2="100%" id="ccchaos-grad"><stop stop-color="hsl(0, 75%, 49%)" stop-opacity="1" offset="0%"></stop><stop stop-color="hsl(0, 90%, 56%)" stop-opacity="1" offset="100%"></stop></linearGradient></defs><g stroke-width="3" stroke="url(#ccchaos-grad)" fill="none" stroke-linecap="round"><path d="M376.95 -152.17C385.93 -152.8 394.93 -153.15 403.95 -153.22 412.98 -153.22 422.04 -152.91 431.15 -152.29 440.28 -151.58 449.49 -150.55 458.77 -149.21 468.12 -147.76 477.59 -146 487.19 -143.92 496.9 -141.75 506.78 -139.27 516.86 -136.51 527.07 -133.66 537.53 -130.55 548.22 -127.17 559.09 -123.75 570.21 -120.1 581.6 -116.24 593.13 -112.37 604.91 -108.32 616.9 -104.09 628.97 -99.91 641.17 -95.58 653.45 -91.14 665.65 -86.76 677.78 -82.29 689.73 -77.72 701.37 -73.26 712.63 -68.72 723.38 -64.12 733.53 -59.63 742.95 -55.07 751.48 -50.46 759.15 -45.95 765.75 -41.38 771.18 -36.73 777.22 -29.87 781.92 -15.77 780.99 -8.48 778.66 -1.12 772.74 14.37 770.9 22.55 771.07 28.1 772.43 33.84 775.27 39.79 779.97 45.78 786.48 51.99 794.9 58.41 805.27 64.91 817.4 71.61 831.07 78.53 845.97 85.53 861.71 92.74 877.79 100.14 893.68 107.64 908.82 115.32 922.62 123.19 934.61 131.14 944.26 139.26 951.13 147.54 955.16 155.89 956.05 164.39 953.83 173.03 949.01 181.73 941.68 190.55 932.38 199.48 922.14 208.46 911.37 217.54 900.91 226.7 891.91 235.91 884.8 245.19 880.28 254.52 879.09 263.89 881.29 273.3 886.98 282.76 896.13 292.24 908.19 301.74 922.51 311.27 938.36 320.81 954.67 330.36 970.37 339.9 984.55 349.46 996.11 359.01 1004.21 368.54 1008.45 378.07 1008.3 387.58 1003.7 397.05 995.24 406.51 983.35 415.83 968.97 424.97 953.26 434.11 937.19 443.09 921.85 451.88 908.38 460.67 897.47 469.28 889.74 477.7 885.73 486.11 885.37 494.34 888.48 502.38 894.91 510.4 903.79 518.24 914.35 525.88 926.06 533.52 937.68 540.98 948.35 548.26 957.6 555.54 964.43 562.65 968.33 569.6 969.26 576.58 966.8 583.42 961.04 590.13 952.35 596.89 940.97 603.56 927.42 610.14 912.35 616.81 896.33 623.44 880.02 630.04 864.05 636.79 848.96 643.56 835.22 650.36 823.25 657.36 813.28 664.45 805.42 671.65 799.83 679.09 796.31 686.69 794.66 694.45 794.87 702.5 796.38 710.75 798.82 719.2 802.14 727.95 805.64 736.92 808.96 746.1 812.1 755.54 814.42 765.18 815.68 774.98 815.99 784.98 814.91 795.09 812.35 805.25 808.54 815.5 803.22 825.71 796.5 835.82 788.6 845.85 779.49 855.65 769.35 865.15 758.36 874.36 746.64 883.13 734.38 891.37 721.7 899.14 708.77 906.24 695.75 912.61 682.67 918.35 669.73 923.25 657.01 927.27 644.48 930.59 632.3 932.99 620.5 934.47 609.01 935.27 597.94 935.19 587.26 934.29 576.93 932.87 566.96 930.76 557.31 928.04 547.96 925.09 538.88 921.75 530.01 918.15 521.36 914.68 512.85 911.2 504.45 907.86 496.18 905.03 487.95 902.58 479.72 900.62 471.57 899.5 463.37 899.06 455.09 899.36 446.85 900.67 438.51 902.8 430.04 905.73 421.59 909.64 413 914.27 404.28 919.54 395.55 925.54 386.68 931.96 377.68 938.63 368.68 945.61 359.66 952.43 350.64 958.93 341.62 965.21 332.61 970.85 323.63 975.7 314.68 979.9 305.77 983.08 296.93 985.16 288.13 986.32 279.42 986.28 270.81 985.03 262.26 982.8 253.84 979.4 245.56 974.88 237.35 969.52 229.29 963.21 221.41 956.04 213.59 948.31 205.95 939.95 198.5 931.11 191.09 922.04 183.86 912.72 176.81 903.29 169.77 893.97 162.88 884.76 156.13 875.73 149.35 867.11 142.67 858.83 136.08 850.95 129.4 843.65 122.76 836.83 116.15 830.49 109.4 824.8 102.64 819.59 95.87 814.84 88.92 810.7 81.95 806.95 74.95 803.55 67.79 800.63 60.63 797.96 53.48 795.47 46.23 793.31 39.05 791.21 31.98 789.1 24.89 787.17 17.97 785.12 11.26 782.89 4.63 780.7 -1.74 778.23 -7.84 775.47 -13.81 772.61 -19.49 769.38 -24.9 765.78 -30.21 762 -35.29 757.8 -40.17 753.18 -45.05 748.35 -49.82 743.09 -54.52 737.42 -59.34 731.53 -64.17 725.23 -69.01 718.56 -74.04 711.68 -79.1 704.44 -84.15 696.88 -89.33 689.15 -94.42 681.12 -99.35 672.83 -104.22 664.4 -108.78 655.74 -112.94 646.88 -116.84 637.93 -120.22 628.8 -123.04 619.53 -125.5 610.19 -127.41 600.74 -128.79 591.2 -129.95 581.61 -130.74 571.95 -131.27 562.24 -131.89 552.51 -132.49 542.74 -133.19 532.94 -134.3 523.14 -135.66 513.32 -137.33 503.5 -139.51 493.69 -141.95 483.87 -144.56 474.06 -147.46 464.26 -150.27 454.47 -152.86 444.7 -155.27 434.93 -157.13 425.17 -158.31 415.44 -158.95 405.71 -158.75 396.12 -157.73 386.65 -156.18 377.18 -153.95 367.84 -151.18 358.63 -148.22 349.4 -145.01 340.29 -141.7 331.3 -138.63 322.29 -135.7 313.39 -133 304.6 -130.76 295.78 -128.8 287.06 -127.08 278.43 -125.75 269.77 -124.51 261.2 -123.28 252.71 -122.16 244.17 -120.82 235.71 -119.16 227.31 -117.33 218.87 -115.03 210.48 -112.24 202.16 -109.14 193.77 -105.53 185.44 -101.43 177.16 -97.1 168.81 -92.39 160.5 -87.36 152.25 -82.28 143.93 -77.01 135.65 -71.63 127.42 -66.35 119.14 -61.03 110.91 -55.7 102.73 -50.54 94.51 -45.37 86.36 -40.18 78.28 -35.1 70.18 -29.94 62.17 -24.67 54.27 -19.4 46.37 -13.93 38.59 -8.25 30.95 -2.47 23.34 3.57 15.89 9.9 8.62 16.37 1.42 23.12 -5.58 30.13 -12.37 37.25 -19.06 44.59 -25.53 52.12 -31.74 59.68 -37.84 67.37 -43.68 75.16 -49.24 82.88 -54.69 90.65 -59.85 98.43 -64.74 106.07 -69.51 113.7 -74 121.3 -78.22 128.73 -82.34 136.13 -86.2 143.5 -89.8 150.69 -93.34 157.88 -96.64 165.06 -99.71 172.1 -102.77 179.18 -105.63 186.3 -108.29 193.31 -110.97 200.41 -113.49 207.6 -115.85 214.72 -118.27 221.97 -120.56 229.34 -122.71 236.68 -124.95 244.17 -127.07 251.8 -129.08 259.42 -131.18 267.2 -133.17 275.13 -135.04 283.06 -137.01 291.14 -138.86 299.37 -140.56 307.6 -142.35 315.97 -143.99 324.47 -145.46 332.97 -146.98 341.6 -148.32 350.34 -149.45 359.09 -150.59 367.96 -151.51 376.94 -152.17" stroke-dasharray="3 8" transform="rotate(0, 400, 400)" opacity="0.96"></path><path d="M385.27 -133.36C394.13 -134.08 403.07 -134.51 412.11 -134.66 421.16 -134.74 430.31 -134.52 439.58 -133.98 448.88 -133.36 458.32 -132.41 467.9 -131.14 477.53 -129.77 487.33 -128.08 497.29 -126.07 507.33 -123.96 517.56 -121.55 527.98 -118.85 538.48 -116.06 549.17 -113 560.04 -109.69 570.97 -106.32 582.06 -102.71 593.28 -98.89 604.51 -95.06 615.8 -91.04 627.1 -86.86 638.29 -82.7 649.38 -78.4 660.3 -73.98 670.94 -69.62 681.25 -65.17 691.12 -60.62 700.52 -56.17 709.32 -51.65 717.4 -47.07 724.82 -42.6 731.37 -38.07 736.98 -33.48 743.72 -26.75 751.02 -13.14 751.8 -6.24 751.18 0.61 747.75 14.76 746.24 22.1 746.4 29.54 753.57 45.2 761.76 53.47 769.47 59.07 778.82 64.86 789.75 70.84 802.15 76.87 815.77 83.1 830.32 89.53 845.42 96.02 860.67 102.71 875.58 109.58 889.7 116.53 902.53 123.66 913.59 130.98 922.58 138.36 929.1 145.92 932.87 153.64 934.03 161.42 932.39 169.36 928.11 177.44 921.81 185.58 913.65 193.84 904.16 202.22 894.35 210.66 884.59 219.2 875.6 227.83 868.38 236.5 863.25 245.26 860.73 254.08 861.39 262.94 865.19 271.85 872.1 280.81 882.03 289.8 894.38 298.82 908.54 307.87 923.83 316.94 939.27 326.02 953.9 335.11 966.97 344.2 977.49 353.3 984.74 362.38 988.44 371.47 988.09 380.54 983.67 389.58 975.71 398.62 964.59 407.51 951.12 416.26 936.34 425 921.07 433.6 906.31 442.03 893.06 450.46 881.98 458.73 873.65 466.84 868.62 474.94 866.9 482.88 868.41 490.66 873.12 498.44 880.32 506.07 889.38 513.54 899.9 521.01 910.8 528.35 921.29 535.54 930.96 542.76 938.81 549.85 944.33 556.84 947.39 563.86 947.46 570.8 944.48 577.65 938.71 584.58 930.18 591.46 919.26 598.31 906.47 605.26 892.22 612.22 877.08 619.2 861.61 626.32 846.33 633.51 831.73 640.76 818.24 648.21 806.19 655.77 795.81 663.45 787.33 671.35 780.74 679.41 775.99 687.62 773.13 696.08 771.83 704.71 771.81 713.52 773.08 722.55 775.07 731.75 777.45 741.1 780.24 750.64 782.83 760.29 784.94 770.02 786.66 779.86 787.47 789.71 787.22 799.53 786.09 809.33 783.7 819.01 780.04 828.49 775.34 837.8 769.41 846.81 762.35 855.44 754.35 863.73 745.4 871.53 735.63 878.75 725.2 885.49 714.2 891.55 702.78 896.88 691 901.61 679.02 905.55 666.94 908.65 654.79 911.12 642.7 912.76 630.76 913.56 618.92 913.79 607.31 913.26 595.97 912.01 584.82 910.37 573.96 908.14 563.4 905.43 553.05 902.59 542.97 899.46 533.16 896.15 523.53 893.04 514.12 889.99 504.9 887.1 495.82 884.75 486.88 882.78 478.06 881.29 469.34 880.6 460.69 880.54 452.08 881.16 443.53 882.72 434.99 885.01 426.46 888.03 417.94 891.93 409.41 896.47 400.85 901.58 392.29 907.35 383.7 913.47 375.07 919.82 366.43 926.45 357.86 932.93 349.37 939.11 340.87 945.11 332.45 950.52 324.12 955.22 315.8 959.35 307.58 962.55 299.46 964.74 291.37 966.13 283.4 966.4 275.56 965.56 267.75 963.83 260.08 960.99 252.56 957.11 245.06 952.42 237.72 946.81 230.54 940.36 223.36 933.32 216.34 925.64 209.47 917.43 202.58 908.93 195.82 900.12 189.18 891.1 182.5 882.1 175.9 873.09 169.39 864.18 162.77 855.55 156.2 847.15 149.66 839.06 142.98 831.43 136.3 824.19 129.61 817.36 122.74 811.1 115.85 805.26 108.92 799.85 101.83 794.99 94.71 790.53 87.59 786.41 80.33 782.78 73.1 779.43 65.91 776.31 58.67 773.55 51.54 770.93 44.54 768.37 37.58 766.05 30.81 763.71 24.26 761.29 17.83 758.97 11.65 756.48 5.74 753.8 -0.03 751.1 -5.54 748.13 -10.8 744.86 -15.97 741.5 -20.94 737.79 -25.73 733.74 -30.53 729.53 -35.22 724.96 -39.84 720.02 -44.57 714.9 -49.27 709.41 -53.95 703.57 -58.78 697.55 -63.58 691.19 -68.32 684.5 -73.14 677.66 -77.83 670.52 -82.32 663.09 -86.74 655.54 -90.85 647.73 -94.59 639.7 -98.1 631.56 -101.17 623.22 -103.75 614.71 -106.07 606.12 -107.94 597.38 -109.38 588.5 -110.68 579.58 -111.69 570.55 -112.51 561.43 -113.43 552.27 -114.33 543.04 -115.3 533.76 -116.61 524.45 -118.11 515.1 -119.81 505.72 -121.91 496.33 -124.17 486.91 -126.52 477.47 -129.06 468.03 -131.5 458.58 -133.7 449.12 -135.74 439.66 -137.31 430.19 -138.28 420.72 -138.81 411.26 -138.64 401.9 -137.77 392.65 -136.47 383.39 -134.57 374.24 -132.18 365.2 -129.63 356.14 -126.82 347.19 -123.86 338.33 -121.07 329.45 -118.33 320.66 -115.72 311.97 -113.46 303.25 -111.39 294.61 -109.48 286.05 -107.9 277.45 -106.38 268.93 -104.87 260.48 -103.47 251.98 -101.92 243.55 -100.12 235.18 -98.21 226.76 -95.94 218.39 -93.26 210.08 -90.36 201.71 -87.03 193.39 -83.28 185.12 -79.33 176.8 -75.03 168.53 -70.43 160.3 -65.77 152.02 -60.9 143.8 -55.88 135.63 -50.93 127.42 -45.9 119.27 -40.83 111.2 -35.88 103.1 -30.9 95.08 -25.89 87.15 -20.97 79.23 -15.98 71.41 -10.88 63.71 -5.79 56.03 -0.53 48.5 4.91 41.12 10.45 33.79 16.24 26.63 22.28 19.67 28.47 12.79 34.93 6.11 41.66 -0.33 48.53 -6.68 55.65 -12.78 62.98 -18.64 70.4 -24.38 77.99 -29.86 85.72 -35.08 93.45 -40.17 101.27 -44.99 109.15 -49.54 116.94 -53.98 124.76 -58.16 132.58 -62.07 140.26 -65.9 147.91 -69.48 155.54 -72.82 163.01 -76.11 170.45 -79.18 177.87 -82.04 185.13 -84.89 192.38 -87.56 199.64 -90.05 206.76 -92.57 213.91 -94.94 221.11 -97.17 228.2 -99.48 235.37 -101.66 242.62 -103.72 249.79 -105.88 257.07 -107.93 264.47 -109.88 271.81 -111.94 279.29 -113.9 286.91 -115.75 294.5 -117.71 302.23 -119.55 310.12 -121.27 317.99 -123.08 326.02 -124.75 334.21 -126.26 342.38 -127.83 350.72 -129.22 359.23 -130.42 367.73 -131.63 376.4 -132.62 385.26 -133.36" stroke-dasharray="3 7" transform="rotate(3.464285714285714, 400, 400)" opacity="0.45"></path><path d="M397.82 -114.56C406.63 -115.34 415.55 -115.85 424.59 -116.09 433.64 -116.25 442.82 -116.1 452.13 -115.66 461.46 -115.11 470.94 -114.25 480.55 -113.07 490.19 -111.77 499.98 -110.16 509.91 -108.24 519.87 -106.21 529.96 -103.88 540.16 -101.26 550.37 -98.54 560.67 -95.55 571.03 -92.31 581.35 -89 591.68 -85.46 601.96 -81.7 612.13 -77.92 622.17 -73.95 632.02 -69.81 641.64 -65.69 650.95 -61.42 659.88 -57.03 668.43 -52.7 676.48 -48.26 683.94 -43.73 690.89 -39.29 697.14 -34.78 702.63 -30.21 709.55 -23.48 718.41 -9.95 720.45 -3.14 721.27 3.54 720.53 17.1 719.92 23.99 720.33 30.87 725.79 45.09 731.94 52.47 737.87 57.42 745.17 62.52 753.89 67.78 764.03 73.04 775.46 78.46 788.02 84.06 801.49 89.68 815.6 95.48 830.01 101.46 844.36 107.48 858.25 113.69 871.25 120.07 883.02 126.51 893.14 133.12 901.25 139.9 907.22 146.74 910.76 153.75 911.74 160.92 910.45 168.15 906.79 175.52 901.02 183.04 893.82 190.61 885.36 198.32 876.18 206.15 867.21 214.02 858.75 222.01 851.42 230.09 846.06 238.22 842.87 246.43 842.25 254.73 844.59 263.05 849.77 271.45 857.69 279.9 868.18 288.38 880.66 296.9 894.52 305.46 909.16 314.04 923.68 322.64 937.25 331.27 949.22 339.9 958.75 348.55 965.21 357.19 968.39 365.84 967.88 374.48 963.63 383.11 956.17 391.74 945.79 400.25 933.2 408.64 919.33 417.02 904.88 425.27 890.72 433.39 877.78 441.51 866.63 449.5 857.84 457.36 851.95 465.22 849.03 472.95 849.07 480.55 852.13 488.16 857.65 495.65 865.15 503.02 874.33 510.42 884.25 517.71 894.22 524.9 903.9 532.13 912.34 539.28 919.01 546.36 923.75 553.5 925.97 560.59 925.48 567.65 922.46 574.79 916.75 581.92 908.59 589.06 898.38 596.31 886.36 603.59 873 610.93 858.79 618.41 844.16 625.97 829.58 633.62 815.47 641.44 802.2 649.37 790.07 657.43 779.36 665.67 770.19 674.06 762.64 682.58 756.81 691.28 752.57 700.13 749.75 709.1 748.4 718.23 748.13 727.46 748.67 736.78 750.05 746.21 751.75 755.68 753.51 765.14 755.42 774.63 756.92 784.04 757.85 793.34 758.34 802.54 757.96 811.53 756.61 820.26 754.51 828.76 751.34 836.88 747.12 844.58 742.06 851.9 736 858.7 729.02 864.91 721.31 870.64 712.84 875.7 703.7 880.05 694.05 883.85 683.92 886.9 673.42 889.18 662.63 890.91 651.63 891.89 640.53 892.14 629.32 891.91 618.12 891.04 606.99 889.55 595.88 887.77 584.91 885.53 574.12 882.9 563.43 880.23 552.93 877.36 542.65 874.38 532.49 871.65 522.53 869.03 512.77 866.6 503.13 864.71 493.66 863.2 484.37 862.15 475.16 861.86 466.09 862.15 457.16 863.07 448.27 864.84 439.49 867.27 430.8 870.35 422.14 874.23 413.55 878.67 405.02 883.61 396.51 889.14 388.04 894.98 379.62 901.02 371.2 907.3 362.91 913.45 354.77 919.31 346.62 925.03 338.61 930.21 330.74 934.74 322.86 938.79 315.12 941.99 307.52 944.28 299.92 945.84 292.46 946.4 285.15 945.93 277.83 944.64 270.65 942.34 263.62 939.05 256.56 935 249.64 930.06 242.85 924.3 236.02 917.97 229.3 910.98 222.69 903.42 216.01 895.54 209.41 887.27 202.88 878.74 196.25 870.14 189.66 861.44 183.1 852.74 176.4 844.22 169.7 835.84 162.99 827.66 156.12 819.84 149.23 812.32 142.3 805.13 135.22 798.41 128.1 792.06 120.96 786.08 113.68 780.6 106.41 775.48 99.15 770.71 91.82 766.4 84.55 762.37 77.36 758.6 70.18 755.21 63.15 752 56.28 748.92 49.5 746.12 42.94 743.36 36.61 740.6 30.42 738.01 24.49 735.34 18.82 732.55 13.29 729.82 8.01 726.91 2.96 723.78 -2 720.63 -6.78 717.22 -11.4 713.53 -16.04 709.75 -20.57 705.67 -25.01 701.27 -29.55 696.76 -34.04 691.91 -38.49 686.75 -43.04 681.45 -47.54 675.83 -51.95 669.9 -56.4 663.85 -60.71 657.5 -64.81 650.86 -68.84 644.12 -72.59 637.11 -76 629.86 -79.25 622.51 -82.1 614.94 -84.56 607.17 -86.83 599.33 -88.72 591.31 -90.28 583.12 -91.75 574.89 -92.99 566.51 -94.06 558 -95.24 549.47 -96.39 540.82 -97.57 532.08 -99.02 523.32 -100.58 514.48 -102.26 505.57 -104.24 496.66 -106.29 487.68 -108.36 478.65 -110.57 469.62 -112.64 460.55 -114.47 451.44 -116.18 442.33 -117.47 433.18 -118.24 424.01 -118.68 414.84 -118.52 405.74 -117.77 396.73 -116.69 387.72 -115.1 378.78 -113.07 369.92 -110.9 361.06 -108.46 352.27 -105.86 343.56 -103.36 334.84 -100.85 326.18 -98.38 317.6 -96.18 309 -94.07 300.45 -92.05 291.98 -90.29 283.47 -88.57 275.02 -86.82 266.63 -85.19 258.21 -83.42 249.84 -81.45 241.51 -79.43 233.16 -77.12 224.84 -74.47 216.58 -71.66 208.28 -68.5 200.02 -64.98 191.81 -61.31 183.57 -57.33 175.37 -53.07 167.23 -48.76 159.06 -44.24 150.95 -39.57 142.9 -34.94 134.83 -30.22 126.84 -25.43 118.93 -20.75 111.02 -16.02 103.21 -11.24 95.5 -6.55 87.81 -1.79 80.24 3.06 72.81 7.9 65.43 12.88 58.2 18.04 51.13 23.27 44.14 28.72 37.33 34.42 30.71 40.24 24.2 46.34 17.89 52.71 11.82 59.22 5.85 66.01 0.12 73.03 -5.34 80.19 -10.7 87.55 -15.81 95.1 -20.65 102.72 -25.38 110.47 -29.85 118.33 -34.06 126.19 -38.18 134.1 -42.04 142.06 -45.65 149.95 -49.19 157.84 -52.51 165.73 -55.59 173.49 -58.65 181.25 -61.5 188.97 -64.15 196.56 -66.82 204.13 -69.31 211.69 -71.65 219.11 -74.03 226.53 -76.28 233.97 -78.4 241.28 -80.6 248.62 -82.69 256.01 -84.68 263.31 -86.77 270.67 -88.77 278.11 -90.68 285.48 -92.71 292.95 -94.64 300.53 -96.49 308.06 -98.44 315.72 -100.29 323.52 -102.02 331.29 -103.85 339.21 -105.55 347.29 -107.1 355.35 -108.71 363.58 -110.16 372 -111.41 380.4 -112.68 389.01 -113.74 397.81 -114.55" stroke-dasharray="5 8" transform="rotate(6.928571428571428, 400, 400)" opacity="0.92"></path><path d="M411 -95.75C419.75 -96.6 428.6 -97.18 437.53 -97.49 446.47 -97.73 455.51 -97.67 464.64 -97.31 473.79 -96.84 483.02 -96.07 492.34 -94.98 501.66 -93.77 511.05 -92.25 520.5 -90.43 529.93 -88.49 539.38 -86.24 548.84 -83.72 558.24 -81.09 567.6 -78.18 576.88 -75.03 586.04 -71.79 595.05 -68.33 603.87 -64.65 612.48 -60.93 620.82 -57.03 628.81 -52.95 636.52 -48.87 643.79 -44.65 650.57 -40.3 656.97 -35.99 662.79 -31.58 668 -27.08 674.84 -20.4 684.54 -6.86 687.49 -0.03 689.45 6.67 691.26 20.13 691.77 26.9 692.95 33.56 698.44 47.1 703.69 54 708.62 58.57 714.65 63.24 721.85 68.02 730.31 72.76 739.93 77.63 750.67 82.62 762.41 87.6 774.99 92.72 788.18 97.99 801.73 103.27 815.35 108.7 828.72 114.29 841.51 119.9 853.37 125.68 863.95 131.62 873.03 137.59 880.26 143.73 885.42 150.03 888.55 156.36 889.42 162.86 888.05 169.51 884.82 176.21 879.72 183.05 873.04 190.04 865.49 197.06 857.24 204.23 848.79 211.51 840.98 218.84 834.04 226.28 828.48 233.83 824.99 241.41 823.67 249.09 824.79 256.86 828.63 264.66 834.98 272.54 843.68 280.48 854.53 288.45 866.96 296.47 880.41 304.55 894.31 312.64 907.89 320.78 920.41 328.95 931.32 337.13 939.9 345.33 945.62 353.56 948.33 361.78 947.66 370.02 943.6 378.27 936.61 386.52 926.94 394.67 915.21 402.73 902.22 410.79 888.59 418.74 875.08 426.6 862.51 434.46 851.4 442.21 842.28 449.87 835.68 457.54 831.71 465.11 830.42 472.59 831.93 480.09 835.83 487.5 841.74 494.84 849.47 502.2 858.22 509.5 867.39 516.74 876.72 524.03 885.32 531.27 892.68 538.48 898.65 545.76 902.56 553.02 904.19 560.29 903.62 567.64 900.57 575.01 895.14 582.41 887.63 589.93 878.14 597.49 867.01 605.13 854.65 612.89 841.38 620.74 827.63 628.68 813.77 636.76 800.17 644.95 787.16 653.24 775.03 661.68 764 670.23 754.22 678.88 745.86 687.66 738.9 696.53 733.32 705.47 729.19 714.51 726.28 723.59 724.42 732.68 723.66 741.81 723.6 750.9 724.02 759.92 724.99 768.89 726.05 777.71 726.98 786.35 727.93 794.82 728.44 803.02 728.37 810.9 727.91 818.51 726.67 825.7 724.61 832.43 721.94 838.79 718.39 844.6 713.98 849.82 708.92 854.58 703.05 858.7 696.44 862.15 689.26 865.1 681.45 867.37 673.1 868.94 664.32 870.05 655.14 870.49 645.63 870.29 635.87 869.73 625.9 868.61 615.79 866.99 605.57 865.17 595.3 862.98 585.04 860.5 574.75 858.05 564.54 855.47 554.42 852.86 544.33 850.53 534.38 848.33 524.56 846.36 514.8 844.91 505.19 843.84 495.74 843.21 486.34 843.28 477.1 843.89 468 845.08 458.94 847.03 450.02 849.58 441.23 852.7 432.47 856.53 423.82 860.87 415.29 865.63 406.77 870.93 398.35 876.49 390.03 882.21 381.71 888.16 373.57 893.98 365.61 899.53 357.64 904.97 349.85 909.92 342.22 914.29 334.57 918.22 327.08 921.4 319.75 923.76 312.38 925.48 305.17 926.27 298.1 926.13 290.98 925.26 284 923.44 277.14 920.7 270.22 917.26 263.41 912.96 256.7 907.88 249.9 902.24 243.19 895.93 236.53 889.04 229.78 881.8 223.06 874.13 216.37 866.13 209.55 858 202.74 849.7 195.93 841.32 188.97 833.02 181.99 824.76 174.98 816.62 167.83 808.74 160.65 801.07 153.45 793.65 146.12 786.61 138.79 779.87 131.46 773.44 124.05 767.44 116.68 761.77 109.37 756.4 102.05 751.47 94.83 746.82 87.75 742.42 80.73 738.41 73.89 734.59 67.26 730.95 60.75 727.6 54.48 724.35 48.46 721.16 42.6 718.18 36.99 715.19 31.64 712.16 23.93 707.73 9.71 698.28 3.07 693.11 -1.31 689.57 -5.61 685.79 -9.81 681.75 -14.11 677.65 -18.34 673.27 -22.51 668.61 -26.77 663.87 -30.96 658.84 -35.05 653.53 -39.18 648.12 -43.15 642.44 -46.93 636.49 -50.67 630.44 -54.15 624.14 -57.34 617.6 -60.4 610.97 -63.14 604.12 -65.56 597.05 -67.84 589.91 -69.81 582.58 -71.51 575.06 -73.16 567.5 -74.61 559.77 -75.91 551.89 -77.3 543.97 -78.63 535.92 -79.96 527.74 -81.48 519.55 -83.05 511.24 -84.66 502.83 -86.48 494.42 -88.31 485.91 -90.09 477.33 -91.98 468.74 -93.7 460.07 -95.19 451.35 -96.59 442.62 -97.61 433.83 -98.21 424.98 -98.55 416.14 -98.4 407.34 -97.76 398.6 -96.86 389.86 -95.54 381.17 -93.83 372.53 -92.01 363.89 -89.94 355.31 -87.68 346.77 -85.49 338.23 -83.23 329.74 -80.95 321.3 -78.86 312.85 -76.79 304.45 -74.74 296.09 -72.88 287.71 -71.01 279.38 -69.1 271.09 -67.28 262.79 -65.33 254.52 -63.2 246.3 -61.05 238.06 -58.64 229.85 -55.96 221.69 -53.18 213.52 -50.09 205.38 -46.7 197.3 -43.21 189.2 -39.44 181.15 -35.44 173.16 -31.39 165.17 -27.15 157.24 -22.77 149.39 -18.42 141.54 -13.98 133.77 -9.47 126.1 -5.05 118.45 -0.57 110.91 3.94 103.49 8.37 96.11 12.86 88.86 17.44 81.76 21.98 74.72 26.65 67.85 31.47 61.15 36.33 54.54 41.39 48.11 46.67 41.9 52.07 35.78 57.72 29.88 63.62 24.21 69.69 18.65 76.02 13.32 82.62 8.24 89.36 3.28 96.36 -1.44 103.57 -5.91 110.89 -10.27 118.41 -14.39 126.08 -18.27 133.81 -22.06 141.66 -25.61 149.6 -28.94 157.54 -32.2 165.53 -35.26 173.56 -38.11 181.54 -40.94 189.52 -43.59 197.51 -46.07 205.4 -48.56 213.29 -50.9 221.17 -53.1 228.93 -55.36 236.69 -57.5 244.45 -59.53 252.1 -61.65 259.76 -63.67 267.44 -65.6 275.03 -67.65 282.65 -69.61 290.31 -71.49 297.9 -73.5 305.56 -75.42 313.3 -77.26 320.97 -79.21 328.75 -81.07 336.63 -82.82 344.48 -84.67 352.45 -86.4 360.56 -87.99 368.64 -89.63 376.88 -91.12 385.28 -92.43 393.67 -93.75 402.24 -94.86 410.99 -95.75" stroke-dasharray="2 1" transform="rotate(10.392857142857142, 400, 400)" opacity="0.41"></path><path d="M421.01 -76.94C429.63 -77.85 438.27 -78.5 446.94 -78.88 455.61 -79.19 464.31 -79.21 473.03 -78.93 481.74 -78.55 490.46 -77.86 499.17 -76.87 507.86 -75.76 516.52 -74.34 525.13 -72.62 533.68 -70.77 542.15 -68.63 550.49 -66.21 558.74 -63.68 566.82 -60.88 574.69 -57.83 582.42 -54.69 589.87 -51.32 597.02 -47.73 603.95 -44.1 610.51 -40.27 616.65 -36.27 622.53 -32.26 627.94 -28.1 632.84 -23.8 639.49 -17.35 649.71 -4.03 653.34 2.75 656.26 9.48 660.39 23.02 662.09 29.82 664.28 36.5 670.85 49.9 675.99 56.64 680.53 61.06 685.92 65.54 692.24 70.1 699.62 74.57 707.98 79.13 717.32 83.77 727.61 88.36 738.75 93.05 750.59 97.85 762.98 102.62 775.72 107.5 788.57 112.51 801.27 117.5 813.57 122.63 825.16 127.9 835.8 133.17 845.19 138.58 853.07 144.14 859.35 149.71 863.77 155.44 866.2 161.31 866.82 167.2 865.48 173.24 862.27 179.43 857.68 185.64 851.71 192 844.68 198.49 837.3 205.02 829.69 211.67 822.31 218.45 815.91 225.26 810.63 232.19 806.88 239.24 805.2 246.3 805.63 253.48 808.31 260.74 813.42 268.03 820.72 275.41 829.99 282.87 841.01 290.35 853.24 297.9 866.16 305.51 879.28 313.14 891.89 320.83 903.36 328.56 913.26 336.31 920.94 344.1 925.96 351.92 928.24 359.76 927.44 367.62 923.56 375.52 917.03 383.42 908.04 391.25 897.13 399.01 885.02 406.78 872.21 414.48 859.37 422.1 847.23 429.73 836.26 437.3 826.94 444.8 819.78 452.31 814.91 459.76 812.44 467.16 812.54 474.57 814.9 481.94 819.23 489.27 825.45 496.62 832.88 503.95 841.03 511.25 849.69 518.6 858.07 525.94 865.7 533.27 872.42 540.67 877.57 548.09 880.88 555.53 882.38 563.05 881.69 570.6 878.82 578.21 873.97 585.91 867.1 593.68 858.45 601.51 848.34 609.45 836.99 617.46 824.72 625.56 811.89 633.77 798.81 642.06 785.8 650.42 773.14 658.89 761.09 667.43 749.85 676.03 739.62 684.7 730.5 693.41 722.54 702.14 715.84 710.9 710.32 719.65 705.91 728.34 702.66 737 700.31 745.56 698.72 753.98 697.94 762.29 697.61 770.4 697.55 778.26 697.86 785.92 698.14 793.27 698.24 800.24 698.15 810.05 695.05 826.77 691.65 833.49 686.87 838.99 673.08 846.28 664.22 848.05 657.68 848.64 650.62 848.66 643.1 848.14 635.24 847.33 627.03 846.07 618.52 844.41 609.78 842.62 600.84 840.56 591.75 838.28 582.53 836.1 573.23 833.85 563.89 831.61 554.5 829.68 545.11 827.92 535.77 826.39 526.42 825.37 517.13 824.71 507.94 824.46 498.75 824.87 489.67 825.76 480.7 827.17 471.75 829.29 462.91 831.92 454.18 835.06 445.48 838.84 436.89 843.06 428.4 847.64 419.93 852.7 411.57 857.98 403.3 863.4 395.04 869.03 386.97 874.52 379.08 879.78 371.18 884.93 363.44 889.65 355.88 893.84 348.29 897.66 340.84 900.8 333.55 903.2 326.21 905.04 319 906.04 311.91 906.19 304.77 905.68 297.73 904.31 290.78 902.08 283.76 899.2 276.81 895.52 269.92 891.08 262.94 886.1 256 880.47 249.09 874.26 242.07 867.67 235.07 860.62 228.06 853.21 220.93 845.61 213.8 837.78 206.64 829.79 199.37 821.81 192.08 813.79 184.77 805.81 177.36 797.99 169.94 790.31 162.53 782.78 155.05 775.56 147.6 768.56 140.2 761.8 132.78 755.41 125.45 749.29 118.24 743.44 111.08 737.97 104.06 732.77 97.23 727.8 90.51 723.2 84 718.8 77.73 714.59 71.61 710.68 65.74 706.91 60.13 703.23 54.68 699.8 49.47 696.4 44.52 693.02 37.38 688.16 24.17 678.26 17.97 673.06 11.85 667.75 -0.11 656.15 -5.99 649.79 -9.98 645.42 -13.9 640.82 -17.71 635.97 -21.57 631.06 -25.29 625.9 -28.84 620.5 -32.36 615.03 -35.67 609.32 -38.73 603.37 -41.7 597.37 -44.41 591.13 -46.84 584.69 -49.18 578.18 -51.26 571.48 -53.1 564.58 -54.91 557.64 -56.54 550.52 -58.02 543.23 -59.56 535.91 -61.02 528.44 -62.42 520.82 -63.97 513.18 -65.48 505.4 -66.98 497.51 -68.62 489.6 -70.21 481.58 -71.71 473.45 -73.28 465.32 -74.68 457.09 -75.85 448.77 -76.95 440.45 -77.74 432.04 -78.17 423.55 -78.43 415.07 -78.27 406.6 -77.72 398.16 -76.99 389.73 -75.9 381.32 -74.48 372.94 -72.98 364.56 -71.25 356.22 -69.32 347.91 -67.44 339.59 -65.45 331.31 -63.39 323.06 -61.46 314.81 -59.49 306.58 -57.48 298.4 -55.6 290.21 -53.67 282.05 -51.65 273.92 -49.7 265.79 -47.61 257.69 -45.36 249.64 -43.08 241.57 -40.58 233.55 -37.84 225.56 -35.02 217.58 -31.95 209.64 -28.62 201.76 -25.21 193.88 -21.58 186.05 -17.72 178.3 -13.85 170.55 -9.81 162.88 -5.64 155.3 -1.51 147.74 2.7 140.27 7 132.91 11.19 125.59 15.43 118.39 19.72 111.32 23.9 104.31 28.14 97.44 32.44 90.72 36.68 84.09 41.02 77.62 45.49 71.34 49.96 65.14 54.6 59.14 59.43 53.35 64.35 47.66 69.49 42.19 74.88 36.94 80.4 31.8 86.19 26.89 92.23 22.22 98.44 17.64 104.91 13.31 111.61 9.21 118.47 5.2 125.55 1.42 132.83 -2.12 140.23 -5.6 147.79 -8.86 155.49 -11.92 163.26 -14.93 171.14 -17.75 179.1 -20.39 187.07 -23.02 195.1 -25.48 203.17 -27.8 211.21 -30.14 219.27 -32.35 227.34 -34.44 235.35 -36.6 243.37 -38.65 251.39 -40.6 259.34 -42.66 267.29 -44.63 275.25 -46.52 283.14 -48.52 291.04 -50.46 298.97 -52.33 306.83 -54.32 314.73 -56.24 322.67 -58.08 330.57 -60.03 338.52 -61.9 346.55 -63.67 354.54 -65.54 362.61 -67.29 370.78 -68.91 378.93 -70.59 387.18 -72.11 395.55 -73.47 403.91 -74.83 412.39 -76 421 -76.94" stroke-dasharray="11 1" transform="rotate(13.857142857142856, 400, 400)" opacity="0.98"></path><path d="M424.98 -58.13C433.33 -59.09 441.62 -59.8 449.87 -60.25 458.11 -60.63 466.29 -60.72 474.4 -60.52 482.49 -60.23 490.49 -59.63 498.39 -58.74 506.26 -57.72 513.99 -56.41 521.57 -54.8 529.08 -53.06 536.4 -51.04 543.51 -48.74 550.52 -46.32 557.27 -43.64 563.73 -40.7 570.05 -37.68 576.05 -34.42 581.69 -30.94 587.16 -27.41 592.24 -23.68 596.91 -19.77 603.43 -13.8 614.15 -1.16 618.4 5.42 622.17 12.02 628.47 25.5 631.37 32.33 634.67 39.06 642.92 52.57 648.46 59.34 653.02 63.76 658.24 68.22 664.19 72.72 670.98 77.13 678.58 81.58 687 86.09 696.23 90.52 706.23 95.01 716.9 99.57 728.15 104.06 739.85 108.64 751.84 113.3 763.91 117.91 775.9 122.62 787.55 127.43 798.66 132.22 809 137.11 818.3 142.12 826.45 147.12 833.19 152.24 838.33 157.49 842.87 165.42 840.94 181.97 834.97 190.58 829.59 196.37 823.31 202.31 816.45 208.37 809.66 214.44 803.05 220.65 797.02 226.98 792.17 233.33 788.61 239.79 786.64 246.37 786.68 252.97 788.69 259.67 792.72 266.48 798.89 273.31 806.9 280.23 816.54 287.24 827.55 294.26 839.45 301.36 851.75 308.55 864.03 315.74 875.67 323.01 886.12 330.35 895.05 337.69 901.88 345.09 906.25 352.56 908.14 360.02 907.23 367.54 903.53 375.12 897.44 382.7 889.1 390.24 878.99 397.74 867.72 405.24 855.72 412.71 843.57 420.13 831.92 427.57 821.17 434.96 811.78 442.33 804.2 449.7 798.6 457.05 795.11 464.37 793.93 471.71 794.84 479.04 797.66 486.35 802.35 493.69 808.38 501.03 815.33 508.38 823.08 515.76 830.91 523.16 838.4 530.58 845.43 538.06 851.36 545.56 855.89 553.11 859.01 560.72 860.31 568.38 859.68 576.09 857.29 583.87 852.98 591.72 846.87 599.62 839.23 607.6 830.14 615.65 819.86 623.75 808.68 631.93 796.84 640.15 784.62 648.43 772.29 656.76 760.09 665.11 748.26 673.48 736.99 681.88 726.44 690.26 716.73 698.6 708 706.92 700.25 715.17 693.49 723.3 687.8 731.36 683.06 739.26 679.16 746.97 676.19 754.53 673.88 761.84 672.11 768.86 670.95 775.65 670.09 782.1 669.38 788.15 668.71 796.57 666.55 810.56 664.56 815.99 657.39 822.95 639.9 826.66 631.79 825.77 625.9 824.82 619.57 823.51 612.84 821.88 605.87 820.2 598.58 818.32 591 816.3 583.25 814.41 575.29 812.51 567.16 810.66 558.92 809.13 550.56 807.79 542.12 806.68 533.63 806.06 525.09 805.78 516.54 805.89 507.97 806.6 499.41 807.75 490.88 809.36 482.35 811.6 473.86 814.3 465.42 817.44 456.99 821.15 448.62 825.24 440.32 829.64 432.03 834.46 423.79 839.48 415.63 844.6 407.46 849.9 399.45 855.08 391.59 860.04 383.72 864.92 375.99 869.41 368.39 873.42 360.76 877.11 353.26 880.19 345.86 882.61 338.43 884.54 331.09 885.71 323.83 886.12 316.52 885.93 309.28 884.95 302.1 883.19 294.85 880.83 287.64 877.73 280.46 873.91 273.19 869.57 265.95 864.6 258.71 859.05 251.39 853.12 244.06 846.71 236.73 839.91 229.31 832.89 221.88 825.58 214.45 818.06 206.95 810.48 199.45 802.8 191.96 795.08 184.42 787.44 176.92 779.86 169.46 772.37 162.01 765.09 154.63 757.96 147.36 751.02 140.13 744.36 133.04 737.92 126.11 731.7 119.28 725.81 112.65 720.14 106.23 714.69 99.96 709.57 93.93 704.64 88.14 699.91 82.52 695.46 77.15 691.16 72.04 686.99 64.7 681.14 51.31 670.01 45.16 664.59 39.19 659.32 27.76 648.49 22.19 642.82 16.54 637.03 5.38 624.59 -0.07 617.87 -3.74 613.3 -7.29 608.51 -10.69 603.52 -14.09 598.48 -17.3 593.23 -20.31 587.76 -23.26 582.25 -25.98 576.53 -28.46 570.61 -30.88 564.65 -33.07 558.48 -35.05 552.13 -36.99 545.74 -38.75 539.17 -40.36 532.42 -41.99 525.65 -43.51 518.71 -44.93 511.62 -46.43 504.5 -47.86 497.24 -49.21 489.84 -50.65 482.43 -51.99 474.89 -53.21 467.22 -54.47 459.55 -55.57 451.76 -56.45 443.87 -57.29 435.97 -57.86 427.96 -58.14 419.86 -58.3 411.75 -58.14 403.65 -57.66 395.55 -57.07 387.45 -56.18 379.36 -55.02 371.28 -53.81 363.21 -52.39 355.15 -50.78 347.1 -49.2 339.06 -47.49 331.04 -45.68 323.04 -43.94 315.04 -42.12 307.06 -40.22 299.11 -38.39 291.16 -36.46 283.23 -34.42 275.34 -32.4 267.45 -30.23 259.59 -27.89 251.77 -25.52 243.95 -22.94 236.18 -20.15 228.45 -17.28 220.73 -14.19 213.07 -10.87 205.46 -7.49 197.87 -3.91 190.35 -0.14 182.9 3.63 175.48 7.56 168.15 11.61 160.9 15.6 153.7 19.68 146.6 23.82 139.62 27.85 132.69 31.93 125.89 36.04 119.23 40.02 112.64 44.05 106.19 48.12 99.91 52.1 93.72 56.15 87.69 60.29 81.86 64.4 76.11 68.64 70.56 73.03 65.22 77.47 59.97 82.1 54.94 86.93 50.12 91.88 45.41 97.06 40.91 102.48 36.63 108.05 32.45 113.88 28.49 119.95 24.75 126.18 21.08 132.66 17.63 139.36 14.39 146.2 11.2 153.25 8.21 160.48 5.4 167.83 2.62 175.33 0.01 182.96 -2.42 190.67 -4.87 198.47 -7.19 206.37 -9.36 214.29 -11.58 222.28 -13.68 230.31 -15.68 238.34 -17.75 246.4 -19.73 254.49 -21.63 262.55 -23.64 270.62 -25.57 278.7 -27.43 286.76 -29.42 294.82 -31.34 302.88 -33.2 310.92 -35.18 318.97 -37.1 327.03 -38.95 335.07 -40.91 343.13 -42.79 351.22 -44.58 359.29 -46.46 367.4 -48.23 375.55 -49.88 383.69 -51.58 391.87 -53.13 400.11 -54.53 408.34 -55.93 416.63 -57.14 424.97 -58.13" stroke-dasharray="9 10" transform="rotate(17.321428571428573, 400, 400)" opacity="0.73"></path><path d="M421.77 -39.33C429.7 -40.33 437.52 -41.09 445.22 -41.6 452.9 -42.04 460.45 -42.2 467.86 -42.09 475.24 -41.87 482.46 -41.37 489.49 -40.58 496.49 -39.66 503.28 -38.46 509.86 -36.97 516.37 -35.35 522.64 -33.45 528.65 -31.28 534.57 -28.99 540.21 -26.44 545.54 -23.63 553.24 -19.17 566.85 -9.04 572.76 -3.43 578.25 2.38 587.77 14.76 591.99 21.25 596.19 27.79 604.72 41.18 609.43 47.99 613.03 52.46 616.93 56.98 621.21 61.54 626.05 66.01 631.4 70.51 637.32 75.05 643.91 79.49 651.13 83.97 659.01 88.48 667.57 92.89 676.76 97.35 686.54 101.85 696.84 106.26 707.59 110.72 718.67 115.24 729.94 119.68 741.27 124.19 752.49 128.76 763.42 133.28 773.9 137.88 783.7 142.56 792.7 147.19 800.68 151.92 807.47 156.75 815.1 163.99 820.85 179 818.92 186.77 816.01 191.99 811.89 197.32 806.77 202.77 801.15 208.23 795.06 213.8 788.82 219.5 782.99 225.2 777.65 231.02 773.12 236.96 769.91 242.91 768.06 248.97 767.78 255.15 769.39 261.33 772.77 267.63 777.94 274.03 784.93 280.43 793.45 286.94 803.25 293.55 814.1 300.16 825.55 306.87 837.15 313.67 848.56 320.47 859.22 327.36 868.69 334.33 876.68 341.31 882.71 348.36 886.49 355.49 888.01 362.62 887.01 369.83 883.49 377.12 877.83 384.4 870.12 391.67 860.77 398.93 850.32 406.19 839.13 413.44 827.69 420.68 816.57 427.92 806.12 435.16 796.76 442.39 788.91 449.63 782.72 456.86 778.37 464.1 776.06 471.35 775.66 478.62 777.05 485.89 780.25 493.19 784.83 500.5 790.48 507.83 797.11 515.21 804.12 522.61 811.14 530.04 818.08 537.51 824.33 545.03 829.61 552.58 833.89 560.18 836.72 567.83 837.96 575.52 837.71 583.27 835.73 591.06 832.06 598.9 826.9 606.78 820.23 614.7 812.22 622.65 803.12 630.64 793.06 638.65 782.28 646.66 771.03 654.69 759.5 662.7 747.91 670.68 736.47 678.64 725.34 686.54 714.69 694.35 704.65 702.1 695.31 709.72 686.74 717.19 679.01 724.54 672.12 731.69 666.04 738.61 660.82 745.35 656.34 751.82 652.52 757.96 648.12 766.65 642.11 781.66 639.93 787.86 631.82 800.61 618.49 804.41 612.65 803.29 606.02 801.65 590.39 797.15 581.5 794.58 575.29 793.02 568.79 791.48 562.02 790.02 555.13 788.89 548.02 787.95 540.73 787.24 533.36 787 525.84 787.08 518.2 787.5 510.52 788.48 502.74 789.85 494.91 791.63 487.05 793.97 479.15 796.71 471.22 799.83 463.28 803.46 455.32 807.41 447.36 811.63 439.39 816.22 431.43 820.96 423.46 825.79 415.49 830.79 407.62 835.66 399.83 840.33 392.05 844.93 384.34 849.18 376.71 853.01 369.07 856.57 361.5 859.58 354 861.99 346.46 863.98 338.98 865.29 331.54 865.91 324.07 866.01 316.63 865.39 309.21 864.05 301.75 862.17 294.31 859.6 286.87 856.35 279.39 852.63 271.91 848.29 264.43 843.39 256.9 838.11 249.38 832.36 241.86 826.19 234.3 819.77 226.76 813.03 219.24 806.03 211.7 798.93 204.2 791.66 196.75 784.29 189.32 776.95 181.97 769.58 174.71 762.24 167.51 755.03 160.44 747.91 153.52 740.9 146.7 734.12 140.05 727.48 133.61 721.02 127.3 714.82 121.21 708.81 115.36 702.98 109.67 697.43 104.22 692.07 99.03 686.87 93.98 681.94 89.18 677.17 84.62 672.52 78.05 665.97 66.01 653.56 60.42 647.61 54.92 641.87 44.27 630.4 39.02 624.56 33.65 618.7 22.95 606.41 17.68 599.91 12.39 593.25 2.39 579.03 -2.19 571.46 -5.15 566.32 -7.92 560.99 -10.47 555.48 -12.96 549.95 -15.25 544.22 -17.32 538.32 -19.36 532.4 -21.2 526.29 -22.87 520.02 -24.54 513.73 -26.06 507.27 -27.44 500.65 -28.85 494.02 -30.15 487.23 -31.32 480.3 -32.54 473.36 -33.64 466.27 -34.59 459.06 -35.56 451.84 -36.37 444.49 -36.99 437.02 -37.59 429.54 -37.97 421.95 -38.1 414.25 -38.19 406.54 -38.01 398.82 -37.59 391.09 -37.11 383.36 -36.39 375.63 -35.46 367.89 -34.51 360.16 -33.36 352.43 -32.05 344.7 -30.77 336.98 -29.34 329.27 -27.78 321.58 -26.27 313.89 -24.63 306.21 -22.88 298.56 -21.16 290.91 -19.31 283.29 -17.31 275.69 -15.3 268.11 -13.12 260.56 -10.76 253.05 -8.35 245.56 -5.72 238.11 -2.89 230.71 0 223.33 3.12 216.01 6.45 208.75 9.83 201.53 13.4 194.38 17.14 187.31 20.89 180.28 24.77 173.34 28.76 166.51 32.7 159.72 36.71 153.05 40.77 146.5 44.73 140.02 48.71 133.66 52.72 127.46 56.59 121.32 60.48 115.35 64.4 109.53 68.19 103.8 72.03 98.25 75.92 92.88 79.73 87.6 83.64 82.51 87.66 77.62 91.67 72.82 95.83 68.23 100.15 63.84 104.53 59.54 109.11 55.44 113.91 51.56 118.81 47.75 123.95 44.14 129.32 40.74 134.83 37.4 140.58 34.25 146.56 31.29 152.7 28.36 159.05 25.61 165.61 23.03 172.31 20.45 179.2 18.03 186.25 15.75 193.42 13.45 200.73 11.27 208.17 9.21 215.69 7.09 223.31 5.08 231.01 3.15 238.77 1.14 246.58 -0.78 254.45 -2.65 262.34 -4.61 270.27 -6.52 278.22 -8.37 286.18 -10.34 294.16 -12.26 302.14 -14.12 310.13 -16.1 318.12 -18.02 326.11 -19.88 334.09 -21.84 342.08 -23.73 350.06 -25.54 358.04 -27.43 366.02 -29.22 374 -30.89 381.97 -32.61 389.94 -34.19 397.9 -35.61 405.87 -37.04 413.82 -38.29 421.76 -39.33" stroke-dasharray="10 6" transform="rotate(20.785714285714285, 400, 400)" opacity="0.77"></path><path d="M412.29 -20.52C419.72 -21.56 426.99 -22.37 434.08 -22.93 441.17 -23.43 448.07 -23.66 454.79 -23.62 461.48 -23.49 467.97 -23.07 474.25 -22.38 480.5 -21.57 486.52 -20.48 492.3 -19.11 500.78 -16.74 516.42 -10.46 523.56 -6.6 530.37 -2.36 542.75 7.34 548.39 12.74 553.89 18.38 564.43 30.44 569.68 36.8 573.39 41.06 577.18 45.41 581.12 49.85 585.39 54.25 589.9 58.71 594.72 63.24 599.98 67.7 605.63 72.21 611.73 76.77 618.34 81.24 625.45 85.76 633.08 90.31 641.24 94.77 649.9 99.26 659.04 103.79 668.62 108.22 678.57 112.69 688.84 117.2 699.31 121.62 709.89 126.08 720.47 130.59 730.9 135.01 741.06 139.49 750.78 144.03 759.95 148.5 768.39 153.03 775.95 157.63 782.58 162.17 788.09 166.79 792.37 171.5 796.38 178.53 796.07 193 792.04 200.46 788.21 205.44 783.57 210.53 778.32 215.73 772.97 220.91 767.51 226.21 762.23 231.61 757.62 237.01 753.72 242.51 750.78 248.13 749.21 253.75 748.99 259.47 750.26 265.31 753.24 271.15 757.79 277.09 763.87 283.14 771.45 289.19 780.26 295.35 790.05 301.6 800.59 307.86 811.48 314.22 822.33 320.68 832.84 327.13 842.55 333.69 851.05 340.33 858.16 346.98 863.45 353.72 866.67 360.55 867.87 367.38 866.79 374.3 863.46 381.31 858.2 388.32 851.09 395.35 842.47 402.37 832.82 409.4 822.42 416.44 811.69 423.49 801.15 430.55 791.08 437.61 781.84 444.69 773.84 451.77 767.23 458.88 762.17 466 758.91 473.13 757.34 480.29 757.41 487.47 759.19 494.67 762.34 501.9 766.62 509.16 772.01 516.44 777.99 523.76 784.26 531.11 790.75 538.49 796.93 545.91 802.5 553.35 807.47 560.84 811.36 568.36 814.01 575.9 815.49 583.48 815.5 591.08 814.01 598.7 811.18 606.34 806.89 613.99 801.23 621.64 794.42 629.3 786.49 636.93 777.62 644.54 768.01 652.12 757.82 659.65 747.22 667.1 736.41 674.5 725.55 681.8 714.8 688.97 704.28 696.04 694.15 702.95 684.49 709.67 675.39 716.25 666.9 722.6 659.07 728.69 651.94 734.59 645.48 740.2 639.66 745.48 632.27 752.87 620.93 765.37 616.59 770.38 605.27 779.99 593.01 782.01 588.43 780.81 583.34 779.25 571.22 775.31 564.21 773.19 556.68 771.37 539.94 768.69 530.84 768.08 524.61 768.18 518.16 768.57 511.51 769.29 504.81 770.5 497.95 772.06 490.93 773.97 483.88 776.39 476.71 779.15 469.42 782.24 462.12 785.77 454.72 789.58 447.24 793.6 439.75 797.96 432.18 802.44 424.54 806.98 416.9 811.68 409.28 816.25 401.69 820.64 394.1 824.97 386.53 828.99 378.98 832.63 371.43 836.04 363.9 838.96 356.39 841.35 348.86 843.37 341.35 844.79 333.86 845.59 326.34 845.94 318.84 845.63 311.33 844.66 303.82 843.22 296.3 841.14 288.8 838.43 281.27 835.28 273.76 831.55 266.26 827.28 258.75 822.63 251.26 817.52 243.8 811.99 236.36 806.19 228.96 800.05 221.62 793.62 214.31 787.04 207.09 780.26 199.95 773.32 192.89 766.35 185.95 759.3 179.15 752.22 172.45 745.2 165.91 738.21 159.56 731.27 153.34 724.48 147.33 717.79 141.53 711.21 135.88 704.84 130.47 698.61 125.29 692.52 120.26 686.66 115.46 680.96 110.9 675.4 106.46 670.08 102.24 664.89 98.22 659.84 92.39 652.64 81.57 639 76.46 632.48 71.36 626.23 61.28 613.92 56.23 607.78 51.02 601.7 40.56 589.23 35.36 582.76 30.12 576.22 20.16 562.45 15.53 555.2 11.13 547.79 3.39 532.14 0.09 523.91 -1.97 518.35 -3.84 512.63 -5.52 506.75 -7.15 500.85 -8.62 494.81 -9.91 488.61 -11.2 482.39 -12.33 476.03 -13.31 469.52 -14.3 463.01 -15.15 456.35 -15.84 449.56 -16.55 442.77 -17.1 435.84 -17.47 428.79 -17.86 421.73 -18.06 414.56 -18.07 407.27 -18.07 399.97 -17.88 392.65 -17.5 385.31 -17.11 377.98 -16.54 370.63 -15.8 363.26 -15.07 355.91 -14.18 348.55 -13.14 341.19 -12.13 333.83 -10.97 326.48 -9.67 319.14 -8.4 311.81 -6.98 304.5 -5.43 297.2 -3.87 289.92 -2.14 282.66 -0.25 275.43 1.67 268.22 3.79 261.04 6.12 253.91 8.51 246.8 11.12 239.74 13.94 232.74 16.85 225.76 19.97 218.85 23.29 212.01 26.67 205.21 30.24 198.49 33.98 191.86 37.72 185.28 41.6 178.79 45.58 172.42 49.52 166.1 53.53 159.9 57.58 153.82 61.53 147.82 65.51 141.95 69.49 136.23 73.34 130.58 77.19 125.08 81.04 119.76 84.75 114.51 88.47 109.43 92.22 104.54 97.69 97.4 108.86 84.2 114.66 78.14 120.6 72.38 133.39 61.91 140.31 57.18 145.1 54.13 150.1 51.25 155.32 48.54 160.66 45.85 166.23 43.31 172 40.92 177.91 38.53 184.02 36.26 190.31 34.12 196.73 31.94 203.32 29.87 210.07 27.9 216.92 25.86 223.91 23.91 231.01 22.03 238.2 20.07 245.48 18.16 252.84 16.32 260.27 14.38 267.76 12.48 275.29 10.63 282.87 8.67 290.48 6.76 298.1 4.89 305.76 2.91 313.43 0.98 321.1 -0.88 328.78 -2.85 336.46 -4.74 344.12 -6.56 351.79 -8.46 359.44 -10.26 367.06 -11.94 374.69 -13.68 382.27 -15.27 389.82 -16.72 397.36 -18.17 404.86 -19.44 412.28 -20.52" stroke-dasharray="11 12" transform="rotate(24.25, 400, 400)" opacity="0.18"></path><path d="M399.28 -1.71C406.16 -2.78 412.86 -3.63 419.39 -4.24 425.91 -4.79 432.25 -5.08 438.39 -5.12 447.5 -4.9 464.67 -2.96 472.74 -1.23 480.57 0.94 495.24 6.77 502.1 10.39 508.83 14.4 521.67 23.64 527.91 28.8 532.16 32.36 536.39 36.09 540.65 39.97 545.09 43.88 549.62 47.92 554.27 52.08 559.2 56.24 564.32 60.5 569.69 64.86 575.41 69.19 581.43 73.6 587.79 78.07 594.55 82.5 601.69 86.98 609.22 91.51 617.15 95.98 625.47 100.49 634.16 105.04 643.17 109.51 652.49 114.01 662.06 118.55 671.79 123.01 681.64 127.5 691.51 132.02 701.3 136.46 710.91 140.93 720.22 145.45 729.14 149.88 737.53 154.36 745.27 158.88 752.3 163.34 758.47 167.84 763.67 172.4 769.51 179.18 774.06 192.99 772.76 200.04 770.71 204.73 767.73 209.49 763.95 214.35 759.78 219.17 755.15 224.08 750.27 229.09 745.59 234.07 741.11 239.15 737.05 244.33 732.64 252.13 730.73 268.2 734 276.49 738.14 282.04 743.63 287.7 750.37 293.46 758.34 299.21 767.24 305.07 776.85 311.03 786.96 316.99 797.21 323.04 807.26 329.2 816.87 335.36 825.63 341.62 833.22 347.97 839.49 354.33 844.08 360.78 846.81 367.34 847.71 373.89 846.58 380.55 843.42 387.3 838.56 394.06 832.02 400.84 824.1 407.64 815.22 414.44 805.6 421.26 795.59 428.1 785.65 434.95 776.01 441.83 767 448.72 758.97 455.63 752.07 462.56 746.48 469.51 742.41 476.48 739.83 483.48 738.72 490.5 739.18 497.54 740.96 504.61 743.88 511.7 747.95 518.81 752.76 525.95 758.06 533.12 763.82 540.31 769.57 547.52 775.04 554.74 780.24 561.99 784.73 569.25 788.31 576.52 791.06 583.8 792.63 591.09 792.95 598.36 792.15 605.63 790.03 612.88 786.62 620.09 782.1 627.29 776.42 634.43 769.7 641.5 762.11 648.53 753.72 655.47 744.69 662.29 735.18 669.04 725.3 675.65 715.22 682.1 705.07 688.44 694.96 694.58 685.02 700.51 675.34 706.29 666.01 711.82 657.1 717.08 648.65 722.16 640.72 726.93 633.31 731.38 626.46 735.62 620.15 739.5 614.33 743.02 606.65 747.76 593.98 754.96 588.7 757.41 579.88 759.84 567.39 759.6 562.97 758.43 558.36 757.05 547.91 753.79 542 752.14 535.72 750.85 521.69 749.26 513.97 749.17 508.68 749.59 503.15 750.27 497.39 751.24 491.58 752.65 485.56 754.37 479.34 756.39 473.09 758.86 466.66 761.62 460.06 764.65 453.45 768.08 446.67 771.73 439.75 775.57 432.83 779.69 425.76 783.91 418.57 788.17 411.37 792.58 404.14 796.86 396.88 800.97 389.62 805.04 382.34 808.82 375.04 812.27 367.74 815.52 360.42 818.34 353.08 820.69 345.76 822.73 338.42 824.23 331.07 825.17 323.73 825.72 316.38 825.68 309.03 825.06 301.7 824 294.37 822.36 287.05 820.15 279.75 817.53 272.48 814.37 265.24 810.69 258.03 806.67 250.87 802.18 243.77 797.28 236.72 792.1 229.75 786.57 222.87 780.74 216.08 774.73 209.39 768.48 202.84 762.04 196.39 755.52 190.09 748.87 183.95 742.14 177.95 735.42 172.13 728.66 166.51 721.91 161.02 715.25 155.75 708.62 150.7 702.06 145.78 695.65 141.08 689.33 136.6 683.11 132.24 677.07 128.09 671.14 124.14 665.34 120.27 659.72 116.57 654.23 113.04 648.85 109.53 643.66 106.15 638.57 102.89 633.58 97.98 626.39 88.35 612.57 83.54 605.87 78.57 599.36 68.43 586.46 63.27 579.99 57.98 573.57 47.51 560.42 42.44 553.64 37.48 546.79 28.37 532.52 24.32 525.08 20.58 517.5 14.3 501.65 11.76 493.37 10.2 487.8 8.84 482.09 7.68 476.24 6.56 470.38 5.61 464.39 4.84 458.26 4.08 452.12 3.47 445.86 3.02 439.46 2.56 433.06 2.25 426.53 2.09 419.89 1.9 413.24 1.85 406.47 1.96 399.59 2.03 392.7 2.24 385.79 2.59 378.86 2.9 371.93 3.35 364.98 3.93 358.02 4.47 351.07 5.14 344.11 5.94 337.15 6.71 330.2 7.61 323.25 8.65 316.31 9.68 309.39 10.86 302.48 12.2 295.59 13.56 288.72 15.1 281.87 16.83 275.06 18.62 268.28 20.62 261.53 22.84 254.83 25.14 248.16 27.67 241.54 30.43 234.98 33.29 228.46 36.36 222.01 39.65 215.64 43 209.31 46.55 203.06 50.27 196.92 54.02 190.82 57.9 184.82 61.89 178.94 65.85 173.11 69.89 167.41 73.98 161.84 77.98 156.33 82.01 150.96 86.04 145.73 89.94 140.58 93.83 135.58 97.71 130.74 103.31 123.66 114.25 110.47 119.66 104.37 124.95 98.54 135.78 87.85 141.42 82.98 147.18 78.35 159.56 69.93 166.23 66.12 173.21 62.46 188.3 55.73 196.4 52.63 201.97 50.54 207.72 48.55 213.64 46.65 219.67 44.67 225.85 42.76 232.16 40.92 238.57 38.98 245.1 37.1 251.74 35.27 258.45 33.33 265.25 31.44 272.13 29.59 279.06 27.63 286.05 25.71 293.08 23.83 300.16 21.85 307.27 19.92 314.38 18.04 321.53 16.07 328.69 14.17 335.82 12.34 342.98 10.44 350.12 8.64 357.22 6.94 364.34 5.21 371.41 3.6 378.42 2.14 385.44 0.68 392.4 -0.61 399.27 -1.71" stroke-dasharray="6 7" transform="rotate(27.71428571428571, 400, 400)" opacity="0.45"></path><path d="M386.47 17.08C392.82 15.99 399.02 15.11 405.08 14.45 414.09 13.69 431.35 13.5 439.6 14.11 447.7 15.14 463.21 18.65 470.67 21.13 478.06 24.03 492.52 31.15 499.7 35.34 504.57 38.29 509.46 41.44 514.39 44.77 519.47 48.16 524.65 51.72 529.94 55.45 535.44 59.2 541.11 63.1 546.97 67.12 553.09 71.16 559.46 75.3 566.08 79.55 572.99 83.78 580.18 88.1 587.67 92.5 595.44 96.86 603.5 101.29 611.83 105.77 620.38 110.2 629.16 114.69 638.11 119.21 647.18 123.67 656.32 128.17 665.48 132.71 674.56 137.18 683.51 141.67 692.24 146.2 700.66 150.66 708.69 155.15 716.21 159.67 723.19 164.13 729.5 168.61 735.04 173.14 741.81 179.85 749.43 193.39 750.16 200.25 748.8 207.08 741.13 220.99 735.48 228.08 731.47 232.8 727.31 237.59 723.19 242.47 717.88 249.77 711.37 264.77 711.1 272.48 712.52 277.64 715.12 282.88 718.9 288.22 723.97 293.55 730.16 298.98 737.35 304.5 745.49 310.01 754.31 315.62 763.59 321.33 773.17 327.03 782.71 332.83 791.92 338.73 800.63 344.63 808.48 350.63 815.19 356.73 820.68 362.82 824.63 369.02 826.89 375.32 827.54 381.61 826.36 388.01 823.39 394.52 818.9 401.02 812.91 407.56 805.65 414.12 797.52 420.68 788.65 427.27 779.37 433.88 770.05 440.51 760.9 447.16 752.19 453.83 744.25 460.51 737.2 467.22 731.21 473.95 726.52 480.7 723.09 487.47 720.95 494.26 720.22 501.06 720.71 507.88 722.31 514.73 725.06 521.58 728.63 528.45 732.81 535.33 737.62 542.22 742.65 549.12 747.67 556.02 752.71 562.92 757.35 569.82 761.4 576.69 764.94 583.57 767.6 590.42 769.29 597.23 770.11 604.02 769.82 610.76 768.4 617.43 766 624.07 762.49 630.62 757.94 637.07 752.51 643.46 746.18 649.73 739.06 655.86 731.31 661.9 722.98 667.78 714.2 673.48 705.1 679.05 695.77 684.42 686.33 689.56 676.88 694.54 667.5 699.28 658.28 703.74 649.28 708.03 640.58 712.03 632.21 715.72 624.21 719.21 616.61 722.38 609.42 725.21 602.66 727.85 596.31 730.14 590.34 732.09 582.2 734.56 568.03 737.57 561.79 738.17 550.79 737.79 535.22 735.11 529.95 733.79 524.61 732.62 513.11 730.68 506.88 730.11 500.41 730.14 486.35 731.7 478.76 733.34 473.6 734.93 468.23 736.77 462.66 738.87 457.07 741.37 451.28 744.11 445.3 747.08 439.31 750.39 433.14 753.88 426.79 757.52 420.44 761.41 413.93 765.37 407.25 769.37 400.58 773.48 393.84 777.48 387.03 781.32 380.24 785.13 373.39 788.68 366.5 791.93 359.62 795.03 352.7 797.73 345.76 800.03 338.83 802.05 331.88 803.6 324.92 804.66 317.98 805.38 311.05 805.57 304.11 805.23 297.22 804.52 290.34 803.28 283.49 801.52 276.69 799.39 269.93 796.75 263.22 793.64 256.58 790.2 250.01 786.32 243.53 782.03 237.13 777.47 230.84 772.56 224.66 767.33 218.58 761.91 212.64 756.23 206.85 750.33 201.18 744.32 195.67 738.15 190.34 731.84 185.13 725.5 180.11 719.09 175.28 712.62 170.57 706.2 166.06 699.76 161.76 693.34 157.55 687.01 153.53 680.73 149.7 674.5 145.94 668.41 142.34 662.39 138.91 656.46 135.5 650.68 132.21 644.98 129.04 639.38 125.85 633.94 122.74 628.59 119.69 623.32 115.02 615.69 105.64 600.96 100.86 593.83 95.86 586.9 85.6 573.27 80.38 566.51 75.01 559.84 64.42 546.37 59.31 539.52 54.32 532.66 45.22 518.54 41.19 511.25 37.51 503.88 31.43 488.6 29.04 480.67 27.01 472.62 24.09 455.94 23.16 447.29 22.62 441.49 22.24 435.56 22.02 429.53 21.78 423.48 21.68 417.33 21.71 411.07 21.69 404.8 21.79 398.42 21.99 391.94 22.13 385.47 22.37 378.96 22.7 372.44 22.96 365.92 23.31 359.39 23.76 352.85 24.14 346.31 24.63 339.78 25.22 333.24 25.76 326.72 26.43 320.2 27.22 313.7 28.01 307.21 28.95 300.74 30.05 294.3 31.19 287.88 32.52 281.49 34.04 275.14 35.64 268.81 37.46 262.53 39.51 256.3 41.66 250.1 44.05 243.96 46.68 237.89 49.42 231.86 52.39 225.9 55.57 220.03 58.86 214.19 62.34 208.45 66 202.81 69.71 197.21 73.58 191.73 77.57 186.35 81.55 181.04 85.62 175.84 89.75 170.77 93.83 165.76 97.93 160.89 102.05 156.16 106.05 151.49 110.05 146.97 114.04 142.6 119.78 136.21 130.94 124.32 136.37 118.82 141.61 113.56 152.05 103.9 157.32 99.49 162.6 95.26 173.64 87.54 179.49 84.01 185.52 80.58 198.47 74.21 205.4 71.24 212.62 68.26 227.99 62.55 236.12 59.79 241.67 57.86 247.35 55.99 253.16 54.16 259.03 52.22 265.02 50.33 271.1 48.47 277.24 46.5 283.46 44.58 289.74 42.7 296.08 40.71 302.46 38.77 308.88 36.89 315.34 34.92 321.82 33.02 328.31 31.19 334.82 29.3 341.33 27.5 347.82 25.8 354.33 24.07 360.82 22.46 367.26 20.99 373.71 19.52 380.12 18.21 386.46 17.09" stroke-dasharray="8 5" transform="rotate(31.17857142857143, 400, 400)" opacity="0.73"></path><path d="M377.56 35.89C386.35 34.33 403.51 32.35 411.87 31.97 420.15 31.96 436.34 33.29 444.27 34.65 452.2 36.42 467.98 41.31 475.9 44.42 481.27 46.67 486.67 49.13 492.13 51.81 497.71 54.57 503.37 57.52 509.15 60.66 515.08 63.87 521.14 67.25 527.37 70.79 533.78 74.37 540.37 78.09 547.16 81.95 561.3 89.73 576.29 97.95 592.08 106.53 608.4 115.03 625.19 123.81 642.11 132.8 658.68 141.59 674.53 150.56 689.04 159.66 701.84 168.51 712.27 177.5 719.77 186.61 724.58 195.48 726.09 204.51 724.36 213.7 720.58 222.68 714.64 231.87 707.43 241.29 702.35 248.29 694.18 262.58 691.96 269.88 691.93 277.22 698.28 292.26 704.83 299.97 710.59 305.12 717.24 310.36 724.66 315.68 732.78 321 741.35 326.4 750.19 331.9 759.15 337.39 767.93 342.97 776.3 348.64 784.12 354.31 791.08 360.08 796.97 365.94 801.73 371.79 805.09 377.75 806.93 383.8 807.35 389.85 806.15 396 803.35 402.26 799.22 408.51 793.75 414.79 787.14 421.09 779.71 427.4 771.58 433.74 763.01 440.09 754.34 446.46 745.71 452.84 737.37 459.25 729.62 465.67 722.54 472.1 716.32 478.55 711.15 485.01 707.05 491.49 704.05 497.98 702.28 504.47 701.62 510.97 701.98 517.48 703.45 523.99 705.75 530.51 708.74 537.01 712.46 543.52 716.56 550.01 720.86 556.48 725.4 562.94 729.8 569.38 733.89 575.78 737.76 582.15 741.03 588.48 743.61 594.74 746.88 607.16 746.43 619.24 742.15 630.88 734.65 642.21 723.77 652.95 710.18 662.95 694.7 672.48 677.85 681.11 660.4 688.72 642.9 695.71 625.89 701.58 609.76 706.25 594.7 710.28 580.86 713.13 568.24 714.81 556.87 716.04 546.48 716.3 536.85 715.7 530.18 715.15 517.52 713.52 511.36 712.59 505.35 711.86 493.12 710.9 486.8 710.83 480.4 711.32 466.9 713.66 459.77 715.6 452.46 718.29 436.98 725.26 428.82 729.5 423.31 732.68 417.64 736.01 411.81 739.46 405.98 743.12 399.99 746.83 393.85 750.56 387.71 754.4 381.5 758.12 375.24 761.69 368.98 765.25 362.67 768.58 356.32 771.63 349.98 774.55 343.61 777.14 337.23 779.36 330.86 781.35 324.49 782.93 318.12 784.07 311.78 784.92 305.45 785.3 299.15 785.22 292.9 784.81 286.68 783.92 280.52 782.56 274.41 780.87 268.37 778.72 262.41 776.13 256.51 773.23 250.72 769.92 245.03 766.23 239.43 762.27 233.94 757.97 228.6 753.35 223.34 748.53 218.24 743.44 213.29 738.1 203.67 727.07 194.72 715.36 186.49 703.21 178.56 691.04 171.28 678.73 164.61 666.45 158.01 654.5 151.82 642.73 145.96 631.22 139.81 620.19 133.75 609.43 127.71 598.93 121.11 588.91 114.43 579.07 107.66 569.36 100.39 560.03 93.16 550.71 86.11 541.35 80.77 534.45 70.68 520.53 66.04 513.47 61.71 506.4 54.25 491.93 51.18 484.51 48.54 477.02 44.6 461.6 43.27 453.65 42.27 445.62 41.24 429.05 41.15 420.52 41.11 414.8 41.19 408.99 41.39 403.08 41.52 397.17 41.73 391.17 42.03 385.08 42.23 378.99 42.49 372.88 42.82 366.77 43.04 360.66 43.32 354.54 43.66 348.42 43.92 342.31 44.25 336.2 44.66 330.11 45.01 324.02 45.47 317.95 46.04 311.9 46.6 305.87 47.31 299.86 48.17 293.89 49.07 287.93 50.16 282.01 51.45 276.14 52.82 270.3 54.42 264.5 56.24 258.77 58.18 253.06 60.37 247.42 62.8 241.85 65.35 236.32 68.15 230.86 71.17 225.5 74.31 220.17 77.66 214.94 81.21 209.81 88.52 199.67 96.42 189.97 104.74 180.78 112.93 171.77 121.26 163.3 129.61 155.4 137.46 147.68 145.21 140.54 152.84 134 159.9 127.59 166.92 121.74 173.97 116.45 180.65 111.2 187.56 106.43 194.76 102.12 201.88 97.69 209.47 93.63 217.57 89.9 223.77 86.99 236.95 81.35 243.93 78.59 251.12 75.74 266.21 70.07 274.08 67.25 279.41 65.28 284.84 63.35 290.35 61.46 295.9 59.48 301.53 57.54 307.22 55.66 312.95 53.69 318.72 51.8 324.53 49.97 330.37 48.09 336.23 46.3 342.12 44.61 348.01 42.88 353.92 41.28 359.83 39.81 365.74 38.35 371.65 37.03 377.55 35.89" stroke-dasharray="7 10" transform="rotate(34.642857142857146, 400, 400)" opacity="0.15"></path><path d="M375.09 54.7C383.4 53.12 399.91 51.04 408.12 50.58 419.07 50.36 430 51.06 440.96 52.68 452.05 54.7 463.3 57.65 474.79 61.48 486.58 65.69 498.77 70.73 511.45 76.52 524.56 82.59 538.27 89.31 552.56 96.61 567.25 104.03 582.42 111.92 597.89 120.19 613.34 128.45 628.64 137 643.38 145.8 657.25 154.47 669.83 163.32 680.6 172.33 689.52 181.15 696 190.1 699.73 199.18 701.28 208.05 700.2 217.06 696.73 226.2 692.2 235.16 686.52 244.3 680.56 253.62 675.97 262.78 672.94 272.18 672.36 281.8 675.37 291.32 681.78 301.11 691.62 311.18 704.8 321.18 720.18 331.5 736.59 342.13 752.93 352.72 767.43 363.65 778.55 374.92 782.64 380.55 785.46 386.27 786.93 392.08 787.15 397.89 785.94 403.79 783.32 409.78 779.53 415.77 774.55 421.78 768.54 427.81 761.8 433.84 754.38 439.89 746.52 445.96 730.52 458.1 715.11 470.3 701.73 482.53 691.74 494.77 685.42 507.02 682.88 519.23 684.39 531.42 688.75 543.54 695 555.5 702.81 567.39 710.36 579.07 716.61 590.43 721.48 601.62 723.55 612.4 722.49 622.66 718.75 632.62 711.8 641.93 702.04 650.48 690.14 658.6 676.3 665.85 661.17 672.14 645.28 677.9 629.07 682.65 613.02 686.34 597.35 689.55 582.37 691.76 568.23 692.99 554.95 693.95 542.56 694.14 530.97 693.68 520.18 693.34 509.95 692.66 500.13 691.82 490.81 691.59 481.61 691.56 472.38 691.9 463.37 693.28 454.13 695.29 444.57 698 435.06 701.94 425.13 706.61 414.75 711.92 409.56 714.97 404.26 718.13 398.83 721.38 393.41 724.81 387.87 728.28 382.22 731.75 376.57 735.32 370.87 738.78 365.15 742.09 359.44 745.4 353.7 748.5 347.95 751.35 336.48 756.73 325.01 760.8 313.63 763.41 302.37 765.06 291.28 765.02 280.48 763.28 269.87 760.41 259.63 755.89 249.86 749.86 240.34 742.87 231.35 734.6 222.95 725.27 214.8 715.36 207.23 704.69 200.25 693.47 193.39 682.1 187 670.44 181.03 658.66 174.92 647.06 169.04 635.49 163.3 624.06 157.13 612.97 150.93 602.06 144.65 591.35 137.8 581.03 130.83 570.87 123.8 560.85 116.33 551.17 108.97 541.55 101.84 531.95 94.68 522.58 88.04 513.15 82.08 503.61 76.49 494.2 71.79 484.61 68.07 474.81 64.87 465.07 62.63 455.07 61.32 444.79 60.33 434.53 60.05 423.97 60.39 413.11 60.66 404.93 61.53 388.2 62.06 379.65 62.47 371.06 63.25 353.91 63.63 345.36 63.84 333.97 64.31 322.66 65.11 311.46 65.81 300.31 67.12 289.31 69.13 278.52 71.46 267.81 74.72 257.34 78.93 247.18 83.68 237.13 89.4 227.42 96.01 218.12 103.01 208.95 110.69 200.21 118.89 191.95 127.1 183.84 135.56 176.23 144.12 169.14 152.32 162.19 160.44 155.75 168.45 149.85 175.92 144.02 183.28 138.68 190.56 133.82 197.37 128.94 204.24 124.47 211.25 120.38 217.99 116.15 225.02 112.21 232.4 108.56 239.71 104.62 247.47 100.87 255.69 97.31 263.97 93.38 272.73 89.58 281.94 85.92 291.24 81.89 300.96 78.01 311.04 74.33 321.18 70.37 331.63 66.68 342.33 63.37 350.39 60.87 366.78 56.5 375.08 54.7" stroke-dasharray="5 13" transform="rotate(38.107142857142854, 400, 400)" opacity="0.83"></path><path d="M379.78 73.51C390.39 71.31 401.13 69.87 411.98 69.23 422.89 68.88 433.99 69.39 445.3 70.77 456.74 72.51 468.49 75.14 480.58 78.6 492.88 82.42 505.6 87.04 518.73 92.38 532.08 98.01 545.81 104.29 559.82 111.14 573.86 118.15 587.94 125.64 601.82 133.54 615.26 141.47 628.03 149.73 639.75 158.26 650.34 166.72 659.34 175.39 666.39 184.23 671.76 192.93 674.9 201.78 675.73 210.76 675.06 219.58 672.5 228.53 668.43 237.6 664.15 246.52 659.58 255.58 655.47 264.8 653.18 273.88 652.74 283.15 654.76 292.61 660.02 301.97 668.2 311.55 679.11 321.37 692.54 331.12 707.44 341.13 722.73 351.41 737.54 361.65 750.35 372.18 759.95 383.01 765.89 393.81 767.09 404.93 763.28 416.35 755.43 427.78 743.88 439.25 729.89 450.73 715.12 462.21 700.54 473.71 687.37 485.17 676.86 496.63 669.32 508.04 664.99 519.33 664.27 530.59 666.3 541.7 670.42 552.59 676.48 563.37 682.98 573.87 689.01 584 694.55 593.93 698.19 603.4 699.49 612.32 698.78 620.94 695.3 628.91 689.18 636.14 681 642.99 670.65 649.03 658.6 654.19 645.34 658.93 631.15 662.78 616.48 665.72 601.58 668.32 586.79 670.1 572.36 671.09 558.33 671.95 544.88 672.22 532.06 672 519.81 672 508.14 671.79 496.98 671.51 486.28 671.85 475.91 672.41 465.77 673.31 455.89 675.16 446.07 677.56 436.22 680.53 426.47 684.58 416.59 689.21 406.52 694.35 396.47 700.35 386.19 706.62 375.69 712.95 365.19 719.61 354.73 725.73 344.36 731.11 334.02 736.16 323.82 740.07 313.83 742.7 303.92 744.53 294.29 744.87 285.01 743.71 275.86 741.58 267.12 737.95 258.85 732.93 250.73 727.04 243.09 719.92 235.95 711.75 228.91 703 222.31 693.43 216.15 683.24 209.92 672.79 203.98 661.96 198.28 650.87 192.28 639.82 186.34 628.69 180.42 617.56 173.99 606.65 167.46 595.83 160.8 585.14 153.61 574.73 146.34 564.44 139.04 554.29 131.44 544.4 124.02 534.59 116.93 524.85 109.92 515.31 103.51 505.76 97.85 496.18 92.63 486.73 88.33 477.18 85.03 467.51 82.27 457.92 80.47 448.15 79.58 438.2 79 428.28 79.1 418.15 79.77 407.81 80.29 397.48 81.1 386.93 82.1 376.18 82.58 365.42 83.1 354.73 83.65 344.14 83.71 333.56 83.93 323.1 84.42 312.79 84.75 302.52 85.62 292.44 87.13 282.6 88.93 272.81 91.62 263.3 95.23 254.1 99.39 244.99 104.52 236.22 110.57 227.85 117.1 219.58 124.38 211.72 132.28 204.31 140.34 197.01 148.77 190.16 157.41 183.79 165.84 177.5 174.29 171.66 182.69 166.3 190.63 160.94 198.46 156.01 206.18 151.5 213.41 146.9 220.6 142.65 227.79 138.73 234.62 134.63 241.58 130.77 248.73 127.15 255.67 123.23 262.92 119.49 270.51 115.89 278.03 111.95 285.94 108.14 294.27 104.46 302.58 100.44 311.31 96.57 320.45 92.92 329.59 89 339.12 85.36 349.02 82.08 358.91 78.71 369.17 75.82 379.77 73.51" stroke-dasharray="1 5" transform="rotate(41.57142857142857, 400, 400)" opacity="0.42"></path><path d="M390.29 92.31C400.54 90.13 411.03 88.65 421.77 87.92 432.54 87.45 443.6 87.78 454.94 88.92 466.36 90.4 478.1 92.7 490.14 95.79 502.27 99.22 514.69 103.4 527.31 108.28 539.93 113.44 552.64 119.24 565.27 125.61 577.65 132.15 589.67 139.19 601.08 146.65 611.8 154.18 621.53 162.06 629.96 170.24 637.25 178.39 642.92 186.78 646.77 195.37 649.31 203.87 650.05 212.53 649.06 221.34 647.26 230.02 644.31 238.84 640.64 247.78 637.44 256.59 634.58 265.54 632.66 274.62 632.76 283.58 634.77 292.7 639.08 301.98 646.16 311.16 655.6 320.53 667.1 330.09 680.4 339.59 694.53 349.3 708.55 359.22 721.79 369.11 732.99 379.23 741.18 389.59 746.1 399.94 746.85 410.53 743.25 421.36 736.14 432.19 725.75 443.01 713.1 453.78 699.58 464.55 685.92 475.27 673.17 485.9 662.44 496.51 654.02 507.01 648.24 517.32 645.57 527.59 645.44 537.64 647.39 547.41 651.47 557.07 656.44 566.38 661.6 575.28 666.96 584 671.25 592.22 673.96 599.88 675.38 607.28 674.61 614.05 671.6 620.12 666.84 625.87 659.97 630.89 651.25 635.13 641.19 639.07 629.8 642.24 617.47 644.65 604.5 646.85 591.11 648.38 577.6 649.29 564.05 650.19 550.69 650.65 537.66 650.76 524.9 651.15 512.57 651.43 500.67 651.69 489.1 652.57 477.9 653.65 467.06 655.05 456.44 657.31 446.06 660.01 435.86 663.18 425.78 667.28 415.78 671.83 405.85 676.77 395.95 682.44 386.05 688.29 376.16 694.14 366.26 700.28 356.6 705.93 347.19 710.9 337.78 715.62 328.65 719.34 319.84 721.94 311.06 723.9 302.62 724.55 294.58 723.88 286.58 722.38 278.98 719.55 271.82 715.45 264.68 710.57 257.93 704.55 251.59 697.51 245.17 689.9 239.07 681.46 233.23 672.36 227.18 662.94 221.27 653.04 215.44 642.8 209.22 632.49 202.96 621.98 196.62 611.38 189.79 600.89 182.83 590.38 175.76 579.93 168.27 569.66 160.75 559.46 153.3 549.35 145.68 539.45 138.35 529.62 131.44 519.86 124.74 510.27 118.71 500.7 113.47 491.15 108.74 481.72 104.95 472.25 102.14 462.73 99.88 453.29 98.54 443.75 98.07 434.11 97.88 424.51 98.31 414.77 99.26 404.92 100.03 395.08 101.02 385.09 102.13 375 102.69 364.89 103.23 354.92 103.72 345.09 103.67 335.27 103.72 325.61 103.95 316.15 103.98 306.71 104.46 297.49 105.51 288.54 106.78 279.62 108.88 270.99 111.84 262.68 115.32 254.43 119.76 246.52 125.11 238.99 131 231.52 137.7 224.45 145.09 217.79 152.78 211.18 160.95 204.99 169.46 199.22 177.93 193.48 186.54 188.14 195.19 183.2 203.54 178.23 211.82 173.62 220.01 169.35 227.79 164.97 235.48 160.88 243.1 157.06 250.35 153.04 257.61 149.22 264.94 145.6 272 141.7 279.22 137.94 286.67 134.31 293.94 130.37 301.52 126.54 309.42 122.86 317.24 118.86 325.43 115.02 334.02 111.4 342.55 107.55 351.51 103.97 360.89 100.75 370.24 97.45 380.03 94.61 390.28 92.31" stroke-dasharray="6 4" transform="rotate(45.035714285714285, 400, 400)" opacity="0.55"></path><path d="M403.59 111.12C413.51 108.96 423.68 107.46 434.08 106.65 444.52 106.07 455.2 106.25 466.1 107.16 477.03 108.38 488.16 110.36 499.43 113.07 510.69 116.11 522.01 119.85 533.28 124.25 544.39 128.93 555.28 134.22 565.78 140.06 575.86 146.1 585.3 152.63 593.88 159.59 601.73 166.65 608.45 174.08 613.85 181.81 618.31 189.58 621.32 197.6 622.85 205.83 623.54 214.03 622.94 222.41 621.23 230.94 619.33 239.4 616.93 248 614.45 256.72 612.87 265.35 612.05 274.1 612.43 282.97 614.8 291.75 618.98 300.67 625.14 309.71 633.54 318.68 643.75 327.79 655.41 337.05 668.23 346.26 681.36 355.64 694.01 365.17 705.68 374.68 715.34 384.37 722.22 394.23 726.23 404.08 726.61 414.11 723.21 424.3 716.82 434.5 707.52 444.62 696.16 454.65 683.88 464.66 671.23 474.57 659.08 484.32 648.38 494.04 639.41 503.59 632.55 512.91 628.26 522.17 626.19 531.16 626.09 539.83 628.1 548.39 631.28 556.57 635.07 564.31 639.58 571.89 643.68 578.98 646.9 585.52 650.01 594.71 645.94 609.64 638.45 615.28 631.62 618.61 623.33 621.31 613.84 623.38 603.52 625.36 592.41 626.8 580.77 627.77 568.78 628.83 556.59 629.56 544.4 630.04 532.18 630.85 520.13 631.61 508.34 632.39 496.68 633.75 485.31 635.3 474.27 637.13 463.37 639.7 452.75 642.63 442.41 645.95 432.16 650.03 422.14 654.47 412.32 659.19 402.54 664.51 392.92 669.94 383.48 675.33 374.03 680.97 364.95 686.15 356.24 690.73 347.51 695.11 339.15 698.62 331.17 701.16 323.17 703.18 315.55 704.06 308.3 703.8 301.03 702.84 294.11 700.71 287.55 697.43 280.91 693.48 274.56 688.47 268.49 682.51 262.23 676.01 256.16 668.7 250.22 660.69 243.97 652.35 237.75 643.48 231.52 634.19 224.88 624.76 218.15 615.05 211.32 605.16 204.07 595.28 196.72 585.3 189.32 575.29 181.64 565.39 174.02 555.49 166.59 545.63 159.14 535.92 152.08 526.24 145.53 516.63 139.3 507.15 133.79 497.7 129.11 488.28 124.97 478.97 121.75 469.66 119.49 460.35 117.75 451.11 116.87 441.83 116.81 432.52 116.97 423.24 117.69 413.91 118.87 404.52 119.83 395.15 120.97 385.71 122.17 376.22 122.8 366.73 123.36 357.42 123.82 348.3 123.73 339.19 123.66 330.28 123.71 321.6 123.49 312.93 123.65 304.5 124.29 296.35 125.07 288.23 126.59 280.39 128.89 272.87 131.65 265.39 135.33 258.23 139.89 251.43 144.99 244.67 150.93 238.26 157.62 232.22 164.7 226.21 172.36 220.55 180.47 215.27 188.71 209.98 197.22 205.02 205.88 200.41 214.42 195.73 222.98 191.35 231.52 187.26 239.77 183.03 247.95 179.04 256.07 175.28 263.85 171.3 271.6 167.5 279.35 163.87 286.81 159.96 294.35 156.18 302 152.54 309.45 148.6 317.08 144.77 324.96 141.09 332.7 137.14 340.74 133.35 349.11 129.78 357.41 126.01 366.08 122.52 375.15 119.37 384.18 116.16 393.65 113.38 403.58 111.12" stroke-dasharray="4 4" transform="rotate(48.5, 400, 400)" opacity="0.36"></path><path d="M415.85 129.93C425.38 127.8 435.06 126.3 444.87 125.43 454.69 124.76 464.63 124.78 474.64 125.48 484.62 126.45 494.63 128.13 504.57 130.48 514.41 133.11 524.08 136.42 533.47 140.34 542.6 144.52 551.29 149.28 559.37 154.58 567.01 160.08 573.86 166.05 579.77 172.45 585.06 178.99 589.28 185.89 592.35 193.11 594.78 200.4 596.08 207.96 596.31 215.75 596.18 223.54 595.28 231.53 593.84 239.69 592.67 247.81 591.52 256.09 590.71 264.48 591.05 272.83 592.35 281.29 594.9 289.86 599.25 298.38 605.17 307 612.69 315.73 621.92 324.41 632.42 333.2 643.83 342.1 655.88 350.97 667.84 359.96 679.06 369.05 689.2 378.13 697.41 387.34 703.1 396.65 706.3 405.96 706.36 415.38 703.18 424.91 697.45 434.43 689.2 443.83 679.06 453.07 668.01 462.31 656.43 471.37 645.01 480.23 634.58 489.07 625.39 497.68 617.78 506.01 612.25 514.29 608.56 522.27 606.61 529.9 606.63 537.43 607.9 544.57 610.05 551.27 613.22 557.84 616.47 563.94 619.41 569.52 623.23 577.39 624.08 590.11 620.33 594.95 616.34 597.88 610.96 600.28 604.34 602.19 596.89 604.09 588.45 605.58 579.23 606.71 569.5 607.99 559.27 609.04 548.73 609.92 537.96 611.15 527.08 612.35 516.21 613.61 505.3 615.38 494.51 617.34 483.91 619.51 473.35 622.32 463.01 625.43 452.91 628.81 442.86 632.84 433.05 637.12 423.48 641.59 413.94 646.56 404.63 651.58 395.54 656.52 386.46 661.68 377.8 666.41 369.54 670.59 361.26 674.63 353.37 677.91 345.85 680.36 338.28 682.39 331.06 683.44 324.17 683.5 317.2 683 310.51 681.45 304.09 678.91 297.51 675.78 291.13 671.7 284.91 666.74 278.45 661.29 272.07 655.06 265.73 648.15 259.08 640.9 252.39 633.09 245.64 624.83 238.54 616.38 231.35 607.58 224.09 598.54 216.53 589.44 208.95 580.16 201.42 570.79 193.75 561.44 186.26 552.04 179.07 542.64 172 533.31 165.4 523.98 159.4 514.69 153.79 505.49 148.94 496.31 144.92 487.17 141.44 478.11 138.85 469.07 137.16 460.05 135.94 451.09 135.51 442.14 135.81 433.2 136.28 424.29 137.24 415.37 138.59 406.45 139.7 397.55 140.94 388.64 142.2 379.73 142.9 370.83 143.49 362.14 143.95 353.68 143.85 345.22 143.73 337 143.65 329.02 143.28 321.04 143.18 313.33 143.48 305.89 143.84 298.46 144.82 291.32 146.49 284.49 148.55 277.67 151.43 271.16 155.14 264.97 159.36 258.79 164.42 252.93 170.23 247.41 176.49 241.87 183.4 236.64 190.85 231.74 198.55 226.79 206.64 222.13 215.01 217.76 223.4 213.29 231.95 209.07 240.57 205.1 249.05 200.97 257.53 197.03 265.98 193.29 274.21 189.34 282.41 185.54 290.58 181.89 298.52 177.98 306.47 174.2 314.47 170.54 322.28 166.61 330.19 162.81 338.24 159.16 346.15 155.27 354.27 151.56 362.62 148.06 370.89 144.4 379.45 141.01 388.31 137.95 397.14 134.84 406.31 132.14 415.84 129.93" stroke-dasharray="10 4" transform="rotate(51.964285714285715, 400, 400)" opacity="0.31"></path><path d="M423.56 148.73C432.56 146.66 441.57 145.16 450.54 144.24 459.51 143.5 468.42 143.38 477.21 143.89 485.96 144.63 494.53 146.01 502.84 148.01 511.02 150.27 518.84 153.13 526.21 156.57 533.32 160.26 539.85 164.48 545.7 169.22 551.18 174.14 555.87 179.54 559.71 185.34 563.12 191.29 565.65 197.61 567.3 204.26 568.63 210.99 569.22 218 569.17 225.25 569.15 232.55 568.81 240.05 568.36 247.73 568.5 255.41 568.99 263.25 570.06 271.22 572.33 279.17 575.58 287.24 579.99 295.4 585.9 303.54 593.07 311.78 601.42 320.11 610.99 328.4 621.36 336.79 632.18 345.25 643.23 353.7 653.91 362.22 663.68 370.82 672.34 379.41 679.2 388.07 683.82 396.79 686.3 405.51 686.1 414.3 683.14 423.12 678.05 431.94 670.76 440.59 661.8 449.04 651.95 457.48 641.46 465.71 630.89 473.7 620.95 481.67 611.81 489.38 603.8 496.79 597.39 504.15 592.44 511.19 588.96 517.88 586.9 527.6 589.56 544.86 592.59 552.3 597.49 564.66 594.41 578.33 588.76 581.34 583.92 583.28 578.08 584.9 571.38 586.26 564.14 587.81 556.23 589.19 547.79 590.47 539.03 592.08 529.92 593.69 520.59 595.35 511.11 597.48 501.54 599.75 491.96 602.19 482.35 605.17 472.8 608.37 463.37 611.76 453.95 615.69 444.67 619.78 435.58 623.99 426.5 628.6 417.6 633.21 408.89 637.72 400.18 642.4 391.85 646.69 383.89 650.49 375.9 654.19 368.25 657.23 360.91 659.55 353.51 661.55 346.38 662.71 339.51 663.02 332.53 662.88 325.74 661.83 319.13 659.91 312.35 657.51 305.67 654.26 299.07 650.21 292.24 645.72 285.43 640.52 278.61 634.66 271.51 628.48 264.38 621.74 257.19 614.53 249.76 607.11 242.28 599.31 234.81 591.21 227.18 583 219.62 574.57 212.22 565.98 204.83 557.36 197.73 548.63 191.01 539.85 184.54 531.08 178.61 522.29 173.32 513.49 168.46 504.74 164.35 495.99 161.07 487.27 158.29 478.6 156.34 469.95 155.21 461.34 154.48 452.76 154.46 444.21 155.07 435.7 155.8 427.22 156.95 418.75 158.42 410.33 159.63 401.92 160.93 393.53 162.24 385.2 162.99 376.86 163.62 368.76 164.1 360.91 164.03 353.06 163.89 345.45 163.77 338.1 163.3 330.75 163.04 323.65 163.07 316.84 163.09 310.02 163.61 303.47 164.72 297.22 166.12 290.95 168.23 284.97 171.1 279.29 174.41 273.58 178.5 268.17 183.33 263.04 188.61 257.88 194.57 252.98 201.11 248.36 208 243.67 215.35 239.22 223.09 235.02 230.99 230.7 239.14 226.59 247.48 222.69 255.82 218.63 264.26 214.73 272.74 211 281.12 207.07 289.51 203.27 297.9 199.6 306.14 195.71 314.39 191.93 322.64 188.28 330.75 184.4 338.91 180.65 347.12 177.05 355.24 173.25 363.45 169.63 371.79 166.23 380.07 162.69 388.52 159.42 397.14 156.47 405.73 153.49 414.54 150.89 423.55 148.74" stroke-dasharray="13 7" transform="rotate(55.42857142857142, 400, 400)" opacity="0.09"></path><path d="M424.49 167.54C432.82 165.54 440.99 164.06 448.98 163.11 456.94 162.3 464.69 162.07 472.17 162.39 479.58 162.92 486.67 164.03 493.38 165.69 499.96 167.58 506.07 170.03 511.67 173 519.46 178.03 531.57 190.78 535.76 198.36 538.13 203.69 539.87 209.38 541.04 215.39 542.19 221.5 542.95 227.9 543.42 234.55 544.21 241.25 545 248.18 545.98 255.29 547.69 262.42 549.91 269.72 552.8 277.16 556.77 284.6 561.63 292.16 567.45 299.82 574.43 307.48 582.32 315.23 591 323.05 600.46 330.87 610.32 338.75 620.27 346.69 630.17 354.63 639.49 362.62 647.83 370.64 655.1 378.67 660.72 386.73 664.38 394.81 666.25 402.9 665.84 411 663.11 419.1 658.61 427.19 652.23 435.09 644.37 442.75 635.69 450.41 626.31 457.84 616.68 465 607.39 472.15 598.55 479.01 590.46 485.58 583.54 492.11 577.71 498.32 573.03 504.18 568.67 512.71 566.41 527.81 567.43 534.32 570.97 551.65 563.26 564.01 556.89 566.54 551.93 568.36 546.26 570.07 539.96 571.71 533.34 573.65 526.22 575.61 518.72 577.61 511.02 580.01 503.04 582.52 494.88 585.15 486.63 588.22 478.27 591.44 469.87 594.79 461.44 598.57 453.01 602.45 444.63 606.37 436.25 610.62 427.92 614.83 419.68 618.91 411.44 623.14 403.46 627 395.75 630.43 388.01 633.79 380.5 636.58 373.21 638.75 365.87 640.68 358.7 641.9 351.7 642.38 344.59 642.52 337.6 641.88 330.69 640.49 323.64 638.7 316.64 636.17 309.65 632.93 302.5 629.32 295.33 625.06 288.15 620.19 280.79 615.02 273.42 609.32 266.04 603.15 258.53 596.77 251.07 589.99 243.69 582.89 236.3 575.65 229.07 568.15 222.1 560.45 215.27 552.69 208.81 544.77 202.81 536.74 197.12 528.7 192 520.58 187.55 512.42 183.53 504.28 180.23 496.11 177.7 487.94 175.62 479.81 174.29 471.67 173.69 463.57 173.41 455.5 173.73 447.44 174.61 439.44 175.53 431.45 176.81 423.49 178.35 415.6 179.62 407.71 180.95 399.86 182.27 392.09 183.07 384.31 183.74 376.77 184.25 369.49 184.24 362.2 184.14 355.16 184.01 348.37 183.53 341.58 183.17 335.03 183.03 328.75 182.81 322.45 182.98 316.41 183.62 310.63 185.15 302.06 191.93 286.15 197.3 278.8 201.52 273.93 206.4 269.29 211.89 264.88 217.73 260.38 224.09 256.09 230.9 252 237.96 247.8 245.36 243.77 253.03 239.91 260.82 235.9 268.8 232.03 276.91 228.31 285.04 224.4 293.24 220.62 301.48 216.96 309.68 213.1 317.89 209.36 326.11 205.75 334.27 201.94 342.44 198.27 350.61 194.75 358.73 191.07 366.88 187.58 375.05 184.29 383.19 180.91 391.39 177.78 399.62 174.95 407.85 172.11 416.14 169.62 424.48 167.54" stroke-dasharray="8 9" transform="rotate(58.89285714285714, 400, 400)" opacity="0.18"></path><path d="M418.38 186.35C425.91 184.43 433.17 182.98 440.13 182.01 447.07 181.17 453.69 180.84 459.95 181 469.06 181.76 485.05 186.11 491.78 189.65 497.85 193.94 507.26 204.98 510.69 211.61 513.7 218.82 518.48 234.99 520.78 243.83 522.75 249.88 524.93 256.15 527.46 262.61 530.7 269.11 534.47 275.78 538.88 282.59 544.17 289.43 550.17 296.39 556.88 303.45 564.39 310.52 572.5 317.68 581.04 324.9 590.01 332.14 599.07 339.43 607.95 346.77 616.59 354.1 624.54 361.48 631.5 368.87 637.47 376.27 641.98 383.68 644.8 391.08 646.14 398.49 645.58 405.88 643.08 413.24 639.13 420.6 633.6 427.74 626.78 434.64 619.22 441.54 610.95 448.2 602.31 454.6 593.8 460.98 585.47 467.08 577.58 472.9 570.5 478.69 564.17 484.18 558.68 489.35 552.54 496.89 545.85 510.26 544.69 516.07 545.33 532.23 540.85 544.75 536.78 547.64 531.61 550.72 517.81 557 509.43 560.37 503.51 562.96 497.2 565.62 490.56 568.36 483.82 571.46 476.83 574.64 469.64 577.89 462.41 581.48 455.03 585.11 447.54 588.74 440.04 592.63 432.45 596.44 424.81 600.1 417.17 603.9 409.64 607.35 402.25 610.41 394.84 613.43 387.54 615.96 380.35 617.96 373.12 619.79 365.97 621.01 358.88 621.61 351.74 621.95 344.63 621.63 337.55 620.67 330.39 619.4 323.23 617.48 316.08 614.95 308.83 612.11 301.58 608.69 294.34 604.72 287.03 600.49 279.75 595.77 272.54 590.59 265.32 585.22 258.22 579.46 251.29 573.36 244.45 567.13 237.88 560.6 231.63 553.85 225.6 547.01 220 539.99 214.89 532.82 210.12 525.61 205.93 518.28 202.38 510.88 199.23 503.48 196.75 496.01 194.95 488.52 193.54 481.04 192.77 473.54 192.64 466.05 192.73 458.58 193.34 451.11 194.41 443.69 195.47 436.27 196.82 428.88 198.38 421.55 199.67 414.22 201 406.94 202.31 399.73 203.14 392.52 203.84 385.54 204.4 378.8 204.47 372.05 204.44 365.54 204.36 359.26 203.92 352.97 203.56 346.91 203.34 341.09 202.93 332.44 203.98 316.26 205.79 308.71 208.54 301.32 217.55 287.48 223.78 281.01 228.46 276.67 233.67 272.51 239.34 268.51 245.3 264.4 251.65 260.44 258.33 256.62 265.21 252.67 272.34 248.84 279.67 245.14 287.11 241.29 294.7 237.55 302.37 233.92 310.09 230.14 317.87 226.47 325.66 222.92 333.47 219.23 341.29 215.67 349.09 212.26 356.89 208.73 364.68 205.39 372.42 202.25 380.17 199.03 387.89 196.07 395.55 193.38 403.22 190.69 410.83 188.33 418.37 186.35" stroke-dasharray="1 4" transform="rotate(62.35714285714286, 400, 400)" opacity="0.30"></path><path d="M406.98 205.16C413.65 203.34 420 201.94 426.03 200.97 434.86 199.9 450.68 200.19 457.61 201.57 464.08 203.63 474.99 210.13 479.5 214.52 483.72 219.5 491.06 231.43 494.5 238.27 497.05 243.03 499.67 248.06 502.43 253.32 505.66 258.66 509.17 264.23 513.06 269.97 517.55 275.77 522.52 281.75 527.98 287.86 534.09 294 540.69 300.28 547.75 306.65 555.31 313.05 563.17 319.54 571.18 326.09 579.35 332.65 587.38 339.28 595.07 345.94 602.4 352.61 609.01 359.3 614.68 366.01 619.47 372.72 622.99 379.43 625.08 386.12 625.98 392.82 625.31 399.49 623.04 406.11 619.62 412.72 614.87 419.13 609.02 425.31 602.52 431.48 595.33 437.42 587.72 443.12 580.09 448.8 572.45 454.23 565 459.39 558.06 464.54 551.58 469.42 545.67 474.02 538.34 480.75 528.09 492.78 524.91 498.08 520.75 513.55 516.01 526.43 513.13 529.64 509.57 533.05 499.68 539.98 493.42 543.61 488.96 546.31 484.08 549.04 478.82 551.8 473.48 554.86 467.79 557.94 461.81 561.05 455.79 564.41 449.5 567.77 442.99 571.09 436.46 574.61 429.72 578.03 422.81 581.3 415.89 584.67 408.96 587.72 402.03 590.43 395.11 593.13 388.18 595.39 381.27 597.21 374.34 598.9 367.41 600.09 360.49 600.75 353.54 601.23 346.59 601.15 339.63 600.52 332.65 599.67 325.67 598.26 318.7 596.32 311.72 594.15 304.76 591.46 297.86 588.29 290.98 584.9 284.19 581.07 277.53 576.82 270.95 572.4 264.56 567.61 258.41 562.48 252.43 557.23 246.76 551.68 241.46 545.9 236.42 540.02 231.82 533.93 227.72 527.67 223.94 521.36 220.71 514.9 218.06 508.35 215.76 501.76 214.04 495.09 212.93 488.37 212.1 481.63 211.82 474.86 212.06 468.07 212.46 461.28 213.28 454.49 214.46 447.7 215.6 440.93 216.96 434.17 218.49 427.44 219.76 420.72 221.06 414.04 222.34 407.41 223.19 400.78 223.92 394.35 224.53 388.14 224.73 378.91 224.27 361.47 223.89 353.26 223.38 345.22 223.62 330.08 224.67 322.96 226.4 315.96 232.69 302.74 237.3 296.49 240.82 292.3 244.83 288.25 249.29 284.34 254.01 280.33 259.14 276.45 264.63 272.7 270.33 268.83 276.33 265.07 282.58 261.43 288.98 257.66 295.57 254 302.31 250.46 309.15 246.78 316.09 243.22 323.09 239.79 330.15 236.25 337.25 232.83 344.33 229.58 351.45 226.23 358.56 223.06 365.6 220.1 372.67 217.08 379.67 214.29 386.58 211.77 393.49 209.25 400.3 207.03 406.97 205.16" stroke-dasharray="4 4" transform="rotate(65.82142857142857, 400, 400)" opacity="0.66"></path><path d="M393.58 223.96C405.2 220.61 415.68 218.81 424.95 218.54 434.18 218.7 442.23 220.48 449.16 223.74 456.24 227.51 462.52 232.74 468.3 239.23 474.83 246.15 481.55 254.23 488.89 263.23 497.81 272.53 507.98 282.63 519.49 293.32 532.65 304.17 546.76 315.5 561.06 327.11 575.21 338.8 587.76 350.72 597.37 362.66 604.03 374.64 606.09 386.61 603.01 398.38 596.31 410.16 585.78 421.15 572.88 431.28 559.52 441.37 546.11 450.58 533.73 458.84 523.47 467.08 515.01 474.42 508.29 480.83 503.82 487.34 500.33 493.06 497.22 498.05 495.13 503.36 492.41 508.17 488.65 512.58 484.92 517.61 479.7 522.51 472.95 527.3 465.95 532.95 457.45 538.63 447.6 544.24 437.62 550.65 426.45 556.83 414.24 562.49 402.03 568.46 389.44 573.19 376.67 576.49 363.92 579.46 350.99 580.67 338.06 580.09 325.21 578.85 312.44 575.75 300.03 570.95 287.93 565.48 276.48 558.47 266.05 550.17 256.39 541.4 248.15 531.58 241.71 520.96 236.38 510.13 233 498.69 231.68 486.9 231.16 475.04 232.27 462.93 234.75 450.77 236.92 438.61 239.57 426.43 242.37 414.37 243.67 402.31 244.6 390.92 245.2 380.24 244.48 369.52 243.98 359.46 244.01 350.08 243.77 340.58 244.78 331.67 247.22 323.38 250.27 314.87 255.05 306.85 261.46 299.35 268.69 291.51 277.41 284.09 287.27 277.13 297.74 269.76 309.04 262.8 320.82 256.35 332.91 249.55 345.23 243.32 357.47 237.84 369.82 232.21 381.94 227.5 393.57 223.97" stroke-dasharray="5 2" transform="rotate(69.28571428571429, 400, 400)" opacity="0.55"></path><path d="M382.02 242.77C392.06 239.67 401.32 237.91 409.76 237.48 418.23 237.38 426 238.66 433.17 241.23 440.61 244.2 447.77 248.43 454.89 253.77 462.73 259.47 471.01 266.19 479.93 273.77 489.98 281.61 500.92 290.19 512.62 299.34 525.17 308.65 537.97 318.43 550.34 328.5 562.13 338.66 572.19 349.05 579.57 359.49 584.55 369.97 585.81 380.47 582.97 390.81 577.36 401.16 568.6 410.85 557.72 419.81 546.21 428.76 534.19 436.98 522.52 444.43 512.13 451.91 502.82 458.68 494.75 464.73 488.38 470.91 482.92 476.5 478.06 481.53 474.28 486.86 470.4 491.82 466.09 496.45 462.12 501.59 457.25 506.57 451.33 511.4 445.38 516.87 438.26 522.27 429.96 527.48 421.6 533.26 412.11 538.75 401.58 543.68 391.05 548.86 380.04 552.95 368.79 555.82 357.6 558.49 346.24 559.7 334.95 559.44 323.83 558.72 312.93 556.46 302.52 552.78 292.54 548.6 283.31 543.08 275.17 536.4 267.75 529.36 261.67 521.31 257.2 512.48 253.57 503.44 251.57 493.76 251.23 483.65 251.37 473.47 252.78 462.95 255.25 452.26 257.33 441.57 259.8 430.75 262.41 419.95 263.73 409.14 264.8 398.84 265.6 389.1 265.22 379.32 264.97 370.06 265.06 361.33 264.69 352.51 265.2 344.15 266.77 336.29 268.59 328.25 271.77 320.61 276.27 313.41 281.31 305.95 287.67 298.86 295.12 292.19 303.05 285.23 311.87 278.66 321.3 272.6 331.02 266.29 341.13 260.52 351.35 255.47 361.68 250.33 371.98 246.03 382.02 242.77" stroke-dasharray="3 2" transform="rotate(72.75, 400, 400)" opacity="0.53"></path><path d="M375.63 261.58C384.27 258.75 392.57 257.08 400.48 256.53 408.46 256.23 416.19 257.1 423.73 259.05 431.54 261.31 439.43 264.63 447.5 268.91 456.11 273.46 465.17 278.91 474.69 285.11 484.88 291.53 495.55 298.63 506.46 306.26 517.65 314.02 528.59 322.24 538.74 330.77 548.14 339.37 555.88 348.21 561.31 357.16 564.87 366.13 565.5 375.17 562.94 384.13 558.32 393.09 551.18 401.54 542.23 409.42 532.59 417.3 522.21 424.63 511.72 431.37 501.87 438.15 492.52 444.4 483.9 450.12 476.43 455.96 469.63 461.37 463.4 466.36 458.08 471.61 452.93 476.56 447.73 481.23 442.97 486.29 437.79 491.18 432.04 495.87 426.39 501.02 419.98 506.01 412.74 510.73 405.5 515.86 397.39 520.64 388.46 524.88 379.54 529.3 370.26 532.76 360.83 535.21 351.48 537.54 342.08 538.68 332.86 538.63 323.84 538.27 315.16 536.67 307.07 533.89 299.37 530.77 292.47 526.52 286.59 521.26 281.29 515.73 277.16 509.3 274.37 502.12 272.14 494.78 271.2 486.8 271.54 478.34 272.1 469.81 273.62 460.89 275.94 451.71 277.84 442.52 280.06 433.11 282.44 423.6 283.77 414.09 284.94 404.93 285.94 396.17 285.93 387.39 286 378.98 286.28 370.97 286.04 362.89 286.4 355.16 287.49 347.83 288.56 340.36 290.63 333.21 293.73 326.44 297.08 319.49 301.51 312.85 306.91 306.62 312.6 300.18 319.16 294.11 326.39 288.53 333.81 282.79 341.77 277.57 350.05 273.01 358.41 268.39 366.98 264.53 375.63 261.58" stroke-dasharray="8 12" transform="rotate(76.21428571428571, 400, 400)" opacity="0.79"></path><path d="M376.24 280.38C383.67 277.86 391.1 276.31 398.51 275.7 405.98 275.26 413.52 275.79 421.13 277.21 428.94 278.84 436.97 281.36 445.23 284.68 453.8 288.2 462.69 292.48 471.8 297.41 481.19 302.5 490.71 308.19 500.09 314.36 509.39 320.64 518.18 327.35 526.05 334.36 533.17 341.43 538.82 348.76 542.59 356.24 544.99 363.74 545.15 371.35 542.9 378.98 539.19 386.6 533.52 393.86 526.36 400.71 518.57 407.57 509.96 414.04 500.98 420.08 492.22 426.17 483.53 431.89 475.16 437.22 467.44 442.66 460.11 447.78 453.19 452.59 446.9 457.6 440.84 462.37 434.91 466.88 429.38 471.68 423.73 476.28 417.88 480.66 412.19 485.35 406.11 489.83 399.6 494 393.12 498.43 386.13 502.51 378.66 506.07 371.19 509.76 363.62 512.64 356.09 514.67 348.62 516.64 341.27 517.65 334.23 517.71 327.35 517.59 320.91 516.47 315.08 514.41 307.14 510.53 296.05 498.13 293.26 489.94 292.05 484.13 291.81 477.72 292.53 470.83 293.27 463.88 294.72 456.51 296.78 448.83 298.43 441.13 300.37 433.15 302.48 424.99 303.76 416.82 305 408.85 306.15 401.15 306.5 393.44 306.93 385.96 307.5 378.78 307.55 371.54 308.01 364.56 308.97 357.88 309.74 351.12 311.22 344.61 313.43 338.42 315.69 332.1 318.78 326.08 322.66 320.41 326.65 314.62 331.42 309.17 336.85 304.18 342.38 299.09 348.5 294.47 355.11 290.44 361.75 286.39 368.82 283 376.24 280.38" stroke-dasharray="2 13" transform="rotate(79.67857142857143, 400, 400)" opacity="0.09"></path><path d="M383.69 299.19C389.99 297.01 396.52 295.62 403.2 294.99 409.93 294.48 416.88 294.74 423.99 295.72 431.2 296.83 438.64 298.66 446.22 301.14 453.92 303.75 461.77 306.99 469.62 310.77 477.49 314.65 485.25 319.05 492.66 323.87 499.83 328.76 506.4 334.05 512.09 339.63 517.15 345.25 521.03 351.13 523.45 357.2 524.93 363.28 524.77 369.52 522.86 375.84 519.97 382.16 515.62 388.26 510.1 394.09 504.08 399.93 497.27 405.53 489.99 410.84 482.69 416.18 475.21 421.29 467.75 426.12 460.58 431.03 453.54 435.72 446.72 440.17 440.26 444.76 433.96 449.15 427.82 453.31 421.96 457.66 416.14 461.81 410.34 465.72 404.67 469.83 398.9 473.71 393.02 477.26 387.18 480.98 381.16 484.36 375 487.26 368.83 490.26 362.81 492.57 357.03 494.2 348.53 496.22 333.49 496.37 327.31 494.47 321.99 491.65 315.12 482.35 313.7 476.07 313.19 469.11 315.41 452.74 317.74 443.56 319.09 437.31 320.7 430.76 322.51 423.97 323.72 417.17 324.96 410.46 326.21 403.9 326.86 397.34 327.61 390.91 328.49 384.67 328.92 378.41 329.64 372.32 330.69 366.45 332.14 357.68 337.46 341.2 341.55 333.6 344.46 328.58 348.01 323.86 352.15 319.54 356.3 315.17 361.04 311.22 366.31 307.78 371.59 304.34 377.39 301.44 383.69 299.19" stroke-dasharray="1 1" transform="rotate(83.14285714285714, 400, 400)" opacity="0.79"></path><path d="M395.82 318C406.21 314.44 417.69 313.39 429.66 314.57 441.74 316.06 454.32 319.75 466.47 325.22 478.28 330.94 488.85 338.29 496.78 346.78 502.96 355.36 505.29 364.93 502.83 375.03 497.97 385.13 489.31 394.81 478.45 403.75 467.13 412.81 454.89 421.32 442.81 429.02 431.29 437.06 419.98 444.51 409.23 451.01 398.81 457.96 388.47 463.98 378.52 468.45 368.56 473.16 359.86 475.58 352.76 475.8 343.26 474.7 334.81 461.17 335.97 449.6 336.91 441.25 339.19 431.46 342.55 420.64 344.25 409.82 346.45 399.03 349.02 388.73 350.27 378.39 352.55 368.45 356.08 359.36 359.09 350.15 363.87 341.74 370.48 334.65 376.97 327.49 385.43 321.74 395.82 318" stroke-dasharray="3 7" transform="rotate(86.60714285714286, 400, 400)" opacity="0.17"></path><path d="M409.16 336.8C417.2 334.02 425.95 333.08 434.88 333.76 443.78 334.59 452.71 337.02 460.94 340.79 468.78 344.67 475.45 349.81 480.1 355.89 483.72 362.02 484.8 369.02 482.79 376.62 479.48 384.21 473.62 391.69 466.11 398.76 458.14 405.9 449.15 412.72 439.92 418.97 430.79 425.39 421.6 431.33 412.84 436.45 404.2 441.8 395.86 446.35 388.21 449.65 370.13 454.07 357.28 444.75 358.02 436.49 358.53 430.52 360.07 423.38 362.58 415.33 364.11 407.27 366.26 399.09 368.88 391.19 370.67 383.27 373.26 375.59 376.68 368.54 379.67 361.46 383.84 354.99 389.22 349.53 394.46 344.08 401.11 339.69 409.16 336.8" stroke-dasharray="0 0" transform="rotate(90.07142857142857, 400, 400)" opacity="0.07"></path><path d="M419.86 355.61C430.85 351.82 442.57 352.81 452 357.4 460.51 362.15 465.03 370.27 462.76 380.46 458.27 390.64 448.25 401.03 436.49 409.82 424.51 418.87 411.82 426.59 401.3 430.84 387.44 435.22 378.73 423.12 382.62 408.54 384.51 397.91 389 386.68 395.21 377.1 400.52 367.52 408.86 359.59 419.86 355.61" stroke-dasharray="9 7" transform="rotate(93.53571428571429, 400, 400)" opacity="0.62"></path></g></svg>