<svg id="visual" viewBox="0 0 1600 900" width="1600" height="900" xmlns="http://www.w3.org/2000/svg" xmlns:xlink="http://www.w3.org/1999/xlink" version="1.1"><rect x="0" y="0" width="1600" height="900" fill="#ffffff"></rect><path d="M0 557L38.2 570.5C76.3 584 152.7 611 228.8 628.2C305 645.3 381 652.7 457.2 651.7C533.3 650.7 609.7 641.3 685.8 621.5C762 601.7 838 571.3 914.2 578.2C990.3 585 1066.7 629 1142.8 640.8C1219 652.7 1295 632.3 1371.2 618C1447.3 603.7 1523.7 595.3 1561.8 591.2L1600 587L1600 901L1561.8 901C1523.7 901 1447.3 901 1371.2 901C1295 901 1219 901 1142.8 901C1066.7 901 990.3 901 914.2 901C838 901 762 901 685.8 901C609.7 901 533.3 901 457.2 901C381 901 305 901 228.8 901C152.7 901 76.3 901 38.2 901L0 901Z" fill="#8b8b8b"></path><path d="M0 685L38.2 682C76.3 679 152.7 673 228.8 678.2C305 683.3 381 699.7 457.2 704.7C533.3 709.7 609.7 703.3 685.8 695.2C762 687 838 677 914.2 668C990.3 659 1066.7 651 1142.8 640.5C1219 630 1295 617 1371.2 617.2C1447.3 617.3 1523.7 630.7 1561.8 637.3L1600 644L1600 901L1561.8 901C1523.7 901 1447.3 901 1371.2 901C1295 901 1219 901 1142.8 901C1066.7 901 990.3 901 914.2 901C838 901 762 901 685.8 901C609.7 901 533.3 901 457.2 901C381 901 305 901 228.8 901C152.7 901 76.3 901 38.2 901L0 901Z" fill="#818181"></path><path d="M0 659L38.2 660.2C76.3 661.3 152.7 663.7 228.8 679.8C305 696 381 726 457.2 740.7C533.3 755.3 609.7 754.7 685.8 754.2C762 753.7 838 753.3 914.2 752.5C990.3 751.7 1066.7 750.3 1142.8 751.2C1219 752 1295 755 1371.2 745.5C1447.3 736 1523.7 714 1561.8 703L1600 692L1600 901L1561.8 901C1523.7 901 1447.3 901 1371.2 901C1295 901 1219 901 1142.8 901C1066.7 901 990.3 901 914.2 901C838 901 762 901 685.8 901C609.7 901 533.3 901 457.2 901C381 901 305 901 228.8 901C152.7 901 76.3 901 38.2 901L0 901Z" fill="#787878"></path><path d="M0 760L38.2 763C76.3 766 152.7 772 228.8 769C305 766 381 754 457.2 751.3C533.3 748.7 609.7 755.3 685.8 753.8C762 752.3 838 742.7 914.2 739.3C990.3 736 1066.7 739 1142.8 745.5C1219 752 1295 762 1371.2 764.2C1447.3 766.3 1523.7 760.7 1561.8 757.8L1600 755L1600 901L1561.8 901C1523.7 901 1447.3 901 1371.2 901C1295 901 1219 901 1142.8 901C1066.7 901 990.3 901 914.2 901C838 901 762 901 685.8 901C609.7 901 533.3 901 457.2 901C381 901 305 901 228.8 901C152.7 901 76.3 901 38.2 901L0 901Z" fill="#6f6f6f"></path><path d="M0 846L38.2 837.2C76.3 828.3 152.7 810.7 228.8 802C305 793.3 381 793.7 457.2 802.3C533.3 811 609.7 828 685.8 838.8C762 849.7 838 854.3 914.2 847.7C990.3 841 1066.7 823 1142.8 822.3C1219 821.7 1295 838.3 1371.2 835.3C1447.3 832.3 1523.7 809.7 1561.8 798.3L1600 787L1600 901L1561.8 901C1523.7 901 1447.3 901 1371.2 901C1295 901 1219 901 1142.8 901C1066.7 901 990.3 901 914.2 901C838 901 762 901 685.8 901C609.7 901 533.3 901 457.2 901C381 901 305 901 228.8 901C152.7 901 76.3 901 38.2 901L0 901Z" fill="#666666"></path></svg>