<svg xmlns="http://www.w3.org/2000/svg" version="1.1" xmlns:xlink="http://www.w3.org/1999/xlink" xmlns:svgjs="http://svgjs.dev/svgjs" viewBox="0 0 800 800" preserveAspectRatio="xMidYMid slice"><defs><pattern id="pppixelate-pattern" width="20" height="20" patternUnits="userSpaceOnUse" patternTransform="scale(6.4) rotate(23)" shape-rendering="crispEdges">
    <rect width="1" height="1" x="5" y="1" fill="hsl(0, 0%, 0%)"></rect><rect width="1" height="1" x="6" y="1" fill="hsl(0, 0%, 0%)"></rect><rect width="1" height="1" x="7" y="1" fill="hsl(0, 0%, 0%)"></rect><rect width="1" height="1" x="12" y="1" fill="hsl(0, 0%, 0%)"></rect><rect width="1" height="1" x="13" y="1" fill="hsl(0, 0%, 0%)"></rect><rect width="1" height="1" x="14" y="1" fill="hsl(0, 0%, 0%)"></rect><rect width="1" height="1" x="5" y="2" fill="hsl(0, 0%, 0%)"></rect><rect width="1" height="1" x="6" y="2" fill="hsl(0, 0%, 0%)"></rect><rect width="1" height="1" x="7" y="2" fill="hsl(0, 0%, 0%)"></rect><rect width="1" height="1" x="12" y="2" fill="hsl(0, 0%, 0%)"></rect><rect width="1" height="1" x="13" y="2" fill="hsl(0, 0%, 0%)"></rect><rect width="1" height="1" x="14" y="2" fill="hsl(0, 0%, 0%)"></rect><rect width="1" height="1" x="5" y="3" fill="hsl(0, 0%, 0%)"></rect><rect width="1" height="1" x="6" y="3" fill="hsl(0, 0%, 0%)"></rect><rect width="1" height="1" x="7" y="3" fill="hsl(0, 0%, 0%)"></rect><rect width="1" height="1" x="12" y="3" fill="hsl(0, 0%, 0%)"></rect><rect width="1" height="1" x="13" y="3" fill="hsl(0, 0%, 0%)"></rect><rect width="1" height="1" x="14" y="3" fill="hsl(0, 0%, 0%)"></rect><rect width="1" height="1" x="6" y="6" fill="hsl(0, 0%, 0%)"></rect><rect width="1" height="1" x="7" y="6" fill="hsl(0, 0%, 0%)"></rect><rect width="1" height="1" x="8" y="6" fill="hsl(0, 0%, 0%)"></rect><rect width="1" height="1" x="9" y="6" fill="hsl(0, 0%, 0%)"></rect><rect width="1" height="1" x="10" y="6" fill="hsl(0, 0%, 0%)"></rect><rect width="1" height="1" x="11" y="6" fill="hsl(0, 0%, 0%)"></rect><rect width="1" height="1" x="12" y="6" fill="hsl(0, 0%, 0%)"></rect><rect width="1" height="1" x="13" y="6" fill="hsl(0, 0%, 0%)"></rect><rect width="1" height="1" x="5" y="7" fill="hsl(0, 0%, 0%)"></rect><rect width="1" height="1" x="6" y="7" fill="hsl(0, 0%, 0%)"></rect><rect width="1" height="1" x="7" y="7" fill="hsl(0, 0%, 100%)"></rect><rect width="1" height="1" x="8" y="7" fill="hsl(0, 0%, 100%)"></rect><rect width="1" height="1" x="9" y="7" fill="hsl(0, 0%, 100%)"></rect><rect width="1" height="1" x="10" y="7" fill="hsl(0, 0%, 100%)"></rect><rect width="1" height="1" x="11" y="7" fill="hsl(0, 0%, 100%)"></rect><rect width="1" height="1" x="12" y="7" fill="hsl(0, 0%, 100%)"></rect><rect width="1" height="1" x="13" y="7" fill="hsl(0, 0%, 100%)"></rect><rect width="1" height="1" x="14" y="7" fill="hsl(0, 0%, 0%)"></rect><rect width="1" height="1" x="4" y="8" fill="hsl(0, 0%, 0%)"></rect><rect width="1" height="1" x="5" y="8" fill="hsl(0, 0%, 0%)"></rect><rect width="1" height="1" x="6" y="8" fill="hsl(335, 77%, 50%)"></rect><rect width="1" height="1" x="7" y="8" fill="hsl(0, 0%, 0%)"></rect><rect width="1" height="1" x="8" y="8" fill="hsl(0, 0%, 0%)"></rect><rect width="1" height="1" x="9" y="8" fill="hsl(0, 0%, 0%)"></rect><rect width="1" height="1" x="10" y="8" fill="hsl(0, 0%, 0%)"></rect><rect width="1" height="1" x="11" y="8" fill="hsl(0, 0%, 0%)"></rect><rect width="1" height="1" x="12" y="8" fill="hsl(0, 0%, 0%)"></rect><rect width="1" height="1" x="13" y="8" fill="hsl(0, 0%, 0%)"></rect><rect width="1" height="1" x="14" y="8" fill="hsl(0, 0%, 0%)"></rect><rect width="1" height="1" x="4" y="9" fill="hsl(0, 0%, 0%)"></rect><rect width="1" height="1" x="5" y="9" fill="hsl(0, 0%, 0%)"></rect><rect width="1" height="1" x="6" y="9" fill="hsl(335, 77%, 50%)"></rect><rect width="1" height="1" x="7" y="9" fill="hsl(335, 77%, 50%)"></rect><rect width="1" height="1" x="8" y="9" fill="hsl(335, 77%, 50%)"></rect><rect width="1" height="1" x="9" y="9" fill="hsl(335, 77%, 50%)"></rect><rect width="1" height="1" x="10" y="9" fill="hsl(0, 0%, 0%)"></rect><rect width="1" height="1" x="11" y="9" fill="hsl(0, 0%, 0%)"></rect><rect width="1" height="1" x="12" y="9" fill="hsl(0, 0%, 0%)"></rect><rect width="1" height="1" x="13" y="9" fill="hsl(0, 0%, 0%)"></rect><rect width="1" height="1" x="14" y="9" fill="hsl(0, 0%, 0%)"></rect><rect width="1" height="1" x="5" y="10" fill="hsl(0, 0%, 0%)"></rect><rect width="1" height="1" x="6" y="10" fill="hsl(0, 0%, 0%)"></rect><rect width="1" height="1" x="7" y="10" fill="hsl(0, 0%, 0%)"></rect><rect width="1" height="1" x="8" y="10" fill="hsl(0, 0%, 0%)"></rect><rect width="1" height="1" x="9" y="10" fill="hsl(0, 0%, 0%)"></rect><rect width="1" height="1" x="10" y="10" fill="hsl(0, 0%, 0%)"></rect><rect width="1" height="1" x="11" y="10" fill="hsl(0, 0%, 0%)"></rect><rect width="1" height="1" x="12" y="10" fill="hsl(0, 0%, 0%)"></rect><rect width="1" height="1" x="13" y="10" fill="hsl(0, 0%, 0%)"></rect>
  </pattern></defs><rect width="100%" height="100%" fill="url(#pppixelate-pattern)"></rect></svg>