<svg xmlns="http://www.w3.org/2000/svg" version="1.1" xmlns:xlink="http://www.w3.org/1999/xlink" viewBox="0 0 700 700" style="overflow: hidden; display: block;" width="700" height="700"><defs></defs><g id="two-0" transform="matrix(1 0 0 1 0 0)" opacity="1"><path transform="matrix(1 0 0 1 350 350)" id="two-2" d="M 211.126491 61.992331 C 203.449272 89.845402 139.131737 55.191498 125.602068 80.719548 C 105.743336 118.189399 201.24125 168.106739 173.330233 200.033752 C 152.58638 223.762348 108.423242 191.739211 80.709497 176.729147 C 55.503761 163.077448 45.591943 117.265133 16.930887 117.756906 C -1.40512 118.071519 -9.229758 144.261009 -22.553376 156.862173 C -49.53859 182.384152 -73.622138 250.342529 -106.086614 232.29728 C -146.745186 209.697375 -70.025933 138.756121 -81.079813 93.571092 C -83.82555 82.347324 -91.982754 70.661708 -102.497676 65.871256 C -148.108278 45.091699 -212.241552 102.144676 -254.127466 74.618556 C -276.03686 60.220383 -282.832649 26.177624 -281.397072 0 C -279.942454 -26.524835 -268.570684 -58.681578 -245.663645 -72.133355 C -204.518531 -96.295137 -142.847675 -41.70015 -101.245812 -65.066732 C -90.828077 -70.918077 -85.668745 -85.047407 -83.938308 -96.869971 C -76.054069 -150.73608 -161.835844 -226.067629 -117.958828 -258.293804 C -91.142578 -277.989428 -63.305578 -208.243734 -30.040784 -208.938237 C -4.471379 -209.472076 11.855675 -258.388969 35.896202 -249.663574 C 68.249406 -237.921133 49.323379 -179.061672 68.822158 -150.699507 C 77.551256 -138.002502 94.234788 -132.183312 104.909317 -121.071807 C 115.257721 -110.299779 118.6412 -91.21859 132.205887 -84.963565 C 191.353966 -57.688869 311.775882 -159.42226 329.233302 -96.67162 C 347.631968 -30.537671 154.288314 -68.020282 145.044318 -0.000001 C 141.017794 29.628457 219.071841 33.166478 211.126491 61.992331 Z " fill="hsl(354, 76%, 45%)" stroke="undefined" stroke-width="1" stroke-opacity="1" fill-opacity="1" visibility="visible" stroke-linecap="butt" stroke-linejoin="miter" stroke-miterlimit="4"></path></g></svg>