<svg id="eB7dZNlOCVg1" xmlns="http://www.w3.org/2000/svg" xmlns:xlink="http://www.w3.org/1999/xlink" viewBox="0 0 1025 600" shape-rendering="geometricPrecision" text-rendering="geometricPrecision"><rect width="1071" height="1192" rx="0" ry="0" transform="translate(-17.045012 0)" paint-order="fill markers stroke" fill="#0f040f" stroke-width="1.02269"/><rect width="1071" height="333.386" rx="0" ry="0" transform="translate(-19.396611 556.648031)" fill="#290c29" stroke-width="0.966855"/><path d="M-19.591857,159.049475C80.54785,98.797664,17.124891,70.257333,93.232442,98.797664s88.792142,9.513443,123.67477-34.882629s136.359363-25.369184,206.124618-34.882628q69.765255-9.513444,209.295765-63.422959l-745.219772-3.171149q-15.368817,87.445271-5.855373,112.814455t-.000002,97.714708q-.984013,46.333822,99.155695-13.917987Z" transform="matrix(.662807 0 0 0.976248 63.795939 36.871368)" fill="#290c29" stroke-width="2.384"/><path d="M-19.591857,159.049475C80.54785,98.797664,17.124891,70.257333,93.232442,98.797664s88.792142,9.513443,123.67477-34.882629s136.359363-25.369184,206.124618-34.882628q69.765255-9.513444,209.295765-63.422959l-745.219772-3.171149q-9.513444,82.449847,0,107.819031t12.684592,101.476735q-19.52398,47.567219,80.615728-12.68459Z" transform="matrix(-.695999 0.011787-.016531-.976108 1030.21464 1214.844892)" fill="#290c29" stroke-width="2.384"/><path d="M-20.257414,400.29001l59.85579,24.34471c58.962178,24.34471,178.674384,73.03413,297.492344,73.03413s238.52913-48.68942,357.34708-68.16557c118.81903-19.47519,238.53018-9.73809,297.49256-4.86856l37.917946,3.736523l1.787799,206.33554L991.93036,634c-58.96238,0-178.67353,0-297.49256,0-118.81795,0-238.52911,0-357.34708,0s-238.530166,0-297.492344,0h-59.85579Z" transform="matrix(1.021355 0 0 1 1.132853-.340012)" clip-rule="evenodd" fill="#290c29" fill-rule="evenodd" stroke-width="1.00614"/><path d="M1050.9045,952.20081l-59.87292-7.01403c-58.9793-7.0142-178.7257-21.04229-297.5437-21.01968s-238.49476,14.09623-357.29908,19.73931c-118.80527,5.64277-238.52318,2.85559-297.489,1.46156l-59.85893-1.39357-.1439-59.01393l59.85549-.0114c58.96239-.0112,178.67345-.034,297.49242-.0566c118.81803-.0226,238.52916-.0453,357.3471-.068s238.5301-.0454,297.4923-.0566l59.85572-.0114Z" transform="translate(1.567273-17.958959)" clip-rule="evenodd" fill="#290c29" fill-rule="evenodd" stroke-width="0.540498"/><path d="" fill="none" stroke="#3f5787" stroke-width="2.05"/></svg>
