<svg xlink="http://www.w3.org/1999/xlink" viewBox="0 0 5000 5000" xmlns="http://www.w3.org/2000/svg" style="transform: scale(1);"><defs><filter id="goo"><feGaussianBlur in="SourceGraphic" stdDeviation="0" result="blur"></feGaussianBlur><feColorMatrix in="blur" type="matrix" values="1 0 0 0 0 0 1 0 0 0 0 0 1 0 0 0 0 0 19 -9" result="good"></feColorMatrix><feComposite in="SourceGraphic" in2="goo" operator="atop"></feComposite></filter><path d="M218,239Q231,203 266,220Q301,247 268,279L224,272Q201,263 218,239z" id="P0"></path><path d="M235,239L250,232L263,238L253,268L235,239z" id="P1"></path><path d="M243,215C258,232 267,240 285,257C261,267 245,270 220,269C211,250 217,229 237,217C239,215 241,215 243,215z" id="P2"></path><path d="M240,247L261,251L260,255L244,259L240,247z" id="P3"></path><path d="M221,241L279,244Q295,250 280,254Q272,289 236,276Q208,267 221,241z" id="P4"></path><path d="M238,248L245,239L262,252L248,262L238,248z" id="P5"></path></defs><rect id="RECT" width="5000" height="5000" fill="#111"></rect><g id="group" fill="#FFF" filter=""><use x="20" y="746" href="#P1"></use><use x="393" y="1058" href="#P0"></use><use x="99" y="2304" href="#P3"></use><use x="-27" y="2524" href="#P3"></use><use x="175" y="2749" href="#P1"></use><use x="334" y="4204" href="#P5"></use><use x="551" y="4806" href="#P2"></use><use x="-81" y="5344" href="#P3"></use><use x="1087" y="199" href="#P5"></use><use x="1382" y="677" href="#P4"></use><use x="1355" y="1176" href="#P4"></use><use x="199" y="2408" href="#P5"></use><use x="1411" y="3604" href="#P5"></use><use x="1544" y="4201" href="#P5"></use><use x="1753" y="4565" href="#P3"></use><use x="1599" y="5524" href="#P5"></use><use x="2349" y="179" href="#P1"></use><use x="1785" y="824" href="#P5"></use><use x="2144" y="1262" href="#P1"></use><use x="844" y="2636" href="#P1"></use><use x="2183" y="3648" href="#P3"></use><use x="2041" y="4272" href="#P4"></use><use x="2286" y="5018" href="#P3"></use><use x="2157" y="5386" href="#P1"></use><use x="2501" y="-49" href="#P2"></use><use x="2573" y="418" href="#P1"></use><use x="2741" y="1091" href="#P3"></use><use x="2790" y="2767" href="#P4"></use><use x="2392" y="3376" href="#P3"></use><use x="2255" y="4177" href="#P3"></use><use x="2394" y="4943" href="#P4"></use><use x="2520" y="5030" href="#P1"></use><use x="2641" y="107" href="#P4"></use><use x="2760" y="654" href="#P4"></use><use x="3386" y="1058" href="#P2"></use><use x="2908" y="2275" href="#P1"></use><use x="2923" y="3229" href="#P4"></use><use x="2967" y="4490" href="#P4"></use><use x="3147" y="4979" href="#P5"></use><use x="3146" y="5189" href="#P3"></use><use x="3689" y="142" href="#P1"></use><use x="3481" y="497" href="#P0"></use><use x="3591" y="1051" href="#P5"></use><use x="4811" y="2349" href="#P1"></use><use x="3888" y="3552" href="#P3"></use><use x="4323" y="3606" href="#P0"></use><use x="3699" y="4711" href="#P4"></use><use x="3511" y="5082" href="#P5"></use><use x="5066" y="946" href="#P3"></use><use x="4500" y="876" href="#P2"></use><use x="4951" y="2098" href="#P5"></use><use x="4981" y="2516" href="#P2"></use><use x="5037" y="2785" href="#P2"></use><use x="4811" y="2993" href="#P1"></use><use x="4271" y="4962" href="#P2"></use><use x="4457" y="5143" href="#P2"></use></g></svg>