<svg id="visual" viewBox="0 0 1600 900" width="1600" height="900" xmlns="http://www.w3.org/2000/svg" xmlns:xlink="http://www.w3.org/1999/xlink" version="1.1"><rect x="0" y="0" width="1600" height="900" fill="#0b5cf4"></rect><path d="M0 726L20.5 703.2C41 680.3 82 634.7 123 613.8C164 593 205 597 246 625.3C287 653.7 328 706.3 369 712.5C410 718.7 451 678.3 492 667.7C533 657 574 676 615 694.7C656 713.3 697 731.7 738.2 699C779.3 666.3 820.7 582.7 861.8 560.8C903 539 944 579 985 606.7C1026 634.3 1067 649.7 1108 667.8C1149 686 1190 707 1231 709.7C1272 712.3 1313 696.7 1354 658.2C1395 619.7 1436 558.3 1477 563C1518 567.7 1559 638.3 1579.5 673.7L1600 709L1600 901L1579.5 901C1559 901 1518 901 1477 901C1436 901 1395 901 1354 901C1313 901 1272 901 1231 901C1190 901 1149 901 1108 901C1067 901 1026 901 985 901C944 901 903 901 861.8 901C820.7 901 779.3 901 738.2 901C697 901 656 901 615 901C574 901 533 901 492 901C451 901 410 901 369 901C328 901 287 901 246 901C205 901 164 901 123 901C82 901 41 901 20.5 901L0 901Z" fill="#0a50d3" stroke-linecap="round" stroke-linejoin="miter"></path></svg>