<svg id="visual" viewBox="0 0 1600 900" width="1600" height="900" xmlns="http://www.w3.org/2000/svg" xmlns:xlink="http://www.w3.org/1999/xlink" version="1.1"><rect x="0" y="0" width="1600" height="900" fill="#0a50d3"></rect><path d="M0 86L20.5 97.3C41 108.7 82 131.3 123 141.7C164 152 205 150 246 135.8C287 121.7 328 95.3 369 92.3C410 89.3 451 109.7 492 115C533 120.3 574 110.7 615 101.2C656 91.7 697 82.3 738.2 98.7C779.3 115 820.7 157 861.8 168C903 179 944 159 985 145.2C1026 131.3 1067 123.7 1108 114.7C1149 105.7 1190 95.3 1231 94C1272 92.7 1313 100.3 1354 119.5C1395 138.7 1436 169.3 1477 167C1518 164.7 1559 129.3 1579.5 111.7L1600 94L1600 0L1579.5 0C1559 0 1518 0 1477 0C1436 0 1395 0 1354 0C1313 0 1272 0 1231 0C1190 0 1149 0 1108 0C1067 0 1026 0 985 0C944 0 903 0 861.8 0C820.7 0 779.3 0 738.2 0C697 0 656 0 615 0C574 0 533 0 492 0C451 0 410 0 369 0C328 0 287 0 246 0C205 0 164 0 123 0C82 0 41 0 20.5 0L0 0Z" fill="#0b5cf4" stroke-linecap="round" stroke-linejoin="miter"></path></svg>